/* XPM */
static char *a20gg_fpksa[] = {
/* columns rows colors chars-per-pixel */
"28 28 2 1 ",
"  c None",
". c #FDF7ED",
/* pixels */
"                            ",
"                            ",
"                            ",
"             ..             ",
"           ......           ",
"          ........          ",
"          ........          ",
"        ............        ",
"       ..............       ",
"       ..............       ",
"       ..............       ",
"       ..............       ",
"       ..............       ",
"       ..............       ",
"       ..............       ",
"       ..............       ",
"       ..............       ",
"       ..............       ",
"       ..............       ",
"       ..............       ",
"       ..............       ",
"       ..............       ",
"       ..............       ",
"       ..............       ",
"         ..........         ",
"          ........          ",
"          ........          ",
"           ......           "
};
