/* XPM */
static char *aix2s_mhq80[] = {
/* columns rows colors chars-per-pixel */
"28 28 9 1 ",
"  c None",
". c #ED8A2D",
"X c #EE8D2E",
"o c #EF9430",
"O c #F2A334",
"+ c #F6B638",
"@ c #F9C53C",
"# c #FACC3E",
"$ c #FBCF3F",
/* pixels */
"                            ",
"                            ",
"                            ",
"             +O             ",
"           #@+OoX           ",
"           #@+OoX           ",
"          ##@+OoX.          ",
"          ##@+OoX.          ",
"          ##@+OoX.          ",
"           #@+OoX           ",
"           #@+OoX           ",
"           #@+OoX           ",
"           #@+OoX           ",
"           #@+OoX           ",
"           #@+OoX           ",
"           #@+OoX           ",
"           #@+OoX           ",
"           #@+OoX           ",
"           #@+OoX           ",
"           #@+OoX           ",
"           #@+OoX           ",
"           #@+OoX           ",
"           #@+OoX           ",
"           #@+OoX           ",
"           #@+OoX           ",
"           #@+OoX           ",
"           #@+OoX           ",
"           #@+OoX           "
};
