/* XPM */
static char *a84u5_bt6t3[] = {
/* columns rows colors chars-per-pixel */
"28 28 124 2 ",
"   c None",
".  c #ED8922",
"X  c #EE8E25",
"o  c #ED8829",
"O  c #ED8A29",
"+  c #EE8D2A",
"@  c #ED8B2D",
"#  c #EF9428",
"$  c #EF922C",
"%  c #EE902E",
"&  c #F0972F",
"*  c #F09A2B",
"=  c #F0982E",
"-  c #F19F2F",
";  c #F09930",
":  c #F09A31",
">  c #F09B31",
",  c #F19F30",
"<  c #F2A431",
"1  c #F3A733",
"2  c #F3AA35",
"3  c #F4AB35",
"4  c #F4AB36",
"5  c #F4AE35",
"6  c #F4AC36",
"7  c #F6B538",
"8  c #F4B03F",
"9  c #F7BA39",
"0  c #F7BD3A",
"q  c #F7BE3B",
"w  c #F6B83F",
"e  c #F8BE3B",
"r  c #F8BF3B",
"t  c #F8BF3E",
"y  c #FACB34",
"u  c #FACB35",
"i  c #FACB36",
"p  c #FACB37",
"a  c #F9C53E",
"s  c #FACB38",
"d  c #FACB3B",
"f  c #FBCD38",
"g  c #FACC39",
"h  c #FBCD39",
"j  c #FACC3A",
"k  c #F9C83D",
"l  c #FAC93D",
"z  c #FACB3C",
"x  c #FACA3D",
"c  c #FACB3D",
"v  c #FACB3F",
"b  c #EF9641",
"n  c #EF9741",
"m  c #F09A41",
"M  c #F19E41",
"N  c #F2A340",
"B  c #F3A940",
"V  c #F7BF57",
"C  c #F6BB5F",
"Z  c #F5B866",
"A  c #F4B56C",
"S  c #F3B272",
"D  c #F3B470",
"F  c #F3B175",
"G  c #F3B274",
"H  c #F9C647",
"J  c #FAC940",
"K  c #FACC40",
"L  c #FACC41",
"P  c #FACC42",
"I  c #FACC44",
"U  c #FACD46",
"Y  c #F8C34F",
"T  c #FACF51",
"R  c #FACD52",
"E  c #F9CE63",
"W  c #FAD363",
"Q  c #FBD460",
"!  c #FBD461",
"~  c #FBD462",
"^  c #FBD463",
"/  c #FBD564",
"(  c #FBD567",
")  c #FBD76F",
"_  c #F9CF75",
"`  c #FBD878",
"'  c #FBDB7D",
"]  c #F9D085",
"[  c #F8D194",
"{  c #FBDD90",
"}  c #F8D19F",
"|  c #FBE090",
" . c #FCE197",
".. c #FCE298",
"X. c #FCE29A",
"o. c #FCE39D",
"O. c #F8D2A7",
"+. c #F8D2AC",
"@. c #F8D2B0",
"#. c #F8D3B1",
"$. c #FBE1A6",
"%. c #FCE5A4",
"&. c #FCE8AE",
"*. c #FBE6BA",
"=. c #FCEBBA",
"-. c #FBE9CA",
";. c #FCEEC9",
":. c #FCEECA",
">. c #FCEFCC",
",. c #FDF0C8",
"<. c #FDF0CE",
"1. c #FBECD6",
"2. c #FCEDDD",
"3. c #FDF1D1",
"4. c #FDF4D8",
"5. c #FCEEE2",
"6. c #FDF5E0",
"7. c #FDF6E8",
"8. c #FEF9E8",
"9. c #FDF8EC",
"0. c #FDFAF5",
"q. c #FDF9F6",
"w. c #FEFDF5",
"e. c #FEFCFB",
/* pixels */
"                                                        ",
"                                                        ",
"                                                        ",
"                          F #.                          ",
"                      O n S +.2.q.                      ",
"                    X $ M A } -.6.8.                    ",
"                    * , B C ] $.=.,.                    ",
"                $ ; < 5 w Y E ` | &.<.7.                ",
"              @ $ ; 2 9 a J I T ) o.;.7.q.              ",
"              @ $ ; 5 q x j i K ! ..;.7.q.              ",
"              @ $ ; 5 r x j i x !  .;.7.q.              ",
"              @ $ ; 5 q x j i K ! ..;.7.q.              ",
"              @ $ ; 5 q x j s K / ..;.7.q.              ",
"              @ $ ; 4 q x j s K / ..;.7.q.              ",
"              @ $ ; 5 q x j s K / ..;.7.q.              ",
"              @ + ; 4 q x j s K / ..;.7.q.              ",
"              @ + ; 4 q x j s K / ..;.7.q.              ",
"              @ + ; 4 q x j s K / ..;.7.q.              ",
"              @ + ; 5 q x j s K / ..;.7.q.              ",
"              @ + ; 5 q x j s K / ..;.7.q.              ",
"              @ $ ; 5 r x j i x !  .;.7.q.              ",
"              @ $ ; 5 r x j i x !  .;.7.q.              ",
"              @ $ ; 4 q x x s U / ..;.7.q.              ",
"              @ $ ; < 7 t H T W ' %.>.7.q.              ",
"                  & - < 8 V _ { %.=.3.                  ",
"                    # = N Z [ *.<.4.                    ",
"                    . + m S O.1.9.w.                    ",
"                      O n F #.5.e.                      "
};
