/* XPM */
static char *aof9i_6mzhq[] = {
/* columns rows colors chars-per-pixel */
"28 28 205 2 ",
"   c None",
".  c #ED8922",
"X  c #EE8D25",
"o  c #ED8829",
"O  c #ED8A29",
"+  c #EE8D2A",
"@  c #ED8A2D",
"#  c #EE8C2E",
"$  c #EE8D2E",
"%  c #EE8E2E",
"&  c #EF9328",
"*  c #EF922C",
"=  c #EF912F",
"-  c #EF932F",
";  c #EF942E",
":  c #EF942F",
">  c #F0962F",
",  c #F0982B",
"<  c #F0982E",
"1  c #F19D2E",
"2  c #EF9430",
"3  c #EF9530",
"4  c #F09730",
"5  c #F09930",
"6  c #F09931",
"7  c #F19B31",
"8  c #F19F30",
"9  c #F19C32",
"0  c #F19D32",
"q  c #F19E32",
"w  c #F19F32",
"e  c #F2A231",
"r  c #F2A033",
"t  c #F2A233",
"y  c #F2A333",
"u  c #F3A633",
"i  c #F3A733",
"p  c #F2A434",
"a  c #F2A534",
"s  c #F3AA35",
"d  c #F4AA35",
"f  c #F4AB36",
"g  c #F4AE35",
"h  c #F4AE36",
"j  c #F4AE37",
"k  c #F5B237",
"l  c #F6B537",
"z  c #F5B338",
"x  c #F6B438",
"c  c #F6B538",
"v  c #F6B638",
"b  c #F6B739",
"n  c #F4B03F",
"m  c #F7BA39",
"M  c #F7BA3A",
"N  c #F7BC3A",
"B  c #F7BE3B",
"V  c #F6B83F",
"C  c #F8BF3E",
"Z  c #FAC934",
"A  c #FAC935",
"S  c #FAC936",
"D  c #FAC937",
"F  c #FACB36",
"G  c #FACB37",
"H  c #F8C03B",
"J  c #F8C13B",
"K  c #F8C13C",
"L  c #F9C43C",
"P  c #F9C53C",
"I  c #F9C63D",
"U  c #F9C73D",
"Y  c #F9C53E",
"T  c #FAC938",
"R  c #FACA39",
"E  c #FACB39",
"W  c #FACA3A",
"Q  c #FACA3B",
"!  c #FACB3B",
"~  c #FACC3A",
"^  c #FACD3A",
"/  c #FACC3B",
"(  c #F9C83D",
")  c #FACA3C",
"_  c #FACB3C",
"`  c #FACB3D",
"'  c #FAC93E",
"]  c #FACA3E",
"[  c #FACB3E",
"{  c #FACB3F",
"}  c #FACC3D",
"|  c #FACC3E",
" . c #FACD3E",
".. c #FACD3F",
"X. c #FACE3F",
"o. c #FBCE3F",
"O. c #EF9641",
"+. c #EF9741",
"@. c #F09A41",
"#. c #F19E41",
"$. c #F2A340",
"%. c #F3A940",
"&. c #F7BF57",
"*. c #F6BB5F",
"=. c #F5B866",
"-. c #F4B56C",
";. c #F3B272",
":. c #F3B470",
">. c #F3B175",
",. c #F3B274",
"<. c #F9C647",
"1. c #FAC940",
"2. c #FACB40",
"3. c #FACC42",
"4. c #FACC43",
"5. c #FACC44",
"6. c #FACD45",
"7. c #FACD47",
"8. c #F8C34F",
"9. c #FACE49",
"0. c #FACE4A",
"q. c #FACE4C",
"w. c #FACF4C",
"e. c #FACF4D",
"r. c #FACF4E",
"t. c #FACF4F",
"y. c #FACF51",
"u. c #FACD52",
"i. c #FAD053",
"p. c #FAD25A",
"a. c #FBD35D",
"s. c #F9CE63",
"d. c #FAD363",
"f. c #FBD463",
"g. c #FBD668",
"h. c #FBD76E",
"j. c #F9CF74",
"k. c #FBD977",
"l. c #FBD879",
"z. c #FBDA7B",
"x. c #FBDB7C",
"c. c #FBDB7D",
"v. c #FBDB7E",
"b. c #FBDB7F",
"n. c #F9D085",
"m. c #FBDC83",
"M. c #FBDD84",
"N. c #FBDD85",
"B. c #F8D194",
"V. c #FBDD90",
"C. c #F8D19F",
"Z. c #FBE090",
"A. c #FCE091",
"S. c #FCE299",
"D. c #FCE29A",
"F. c #FCE39B",
"G. c #FCE39E",
"H. c #F8D2A7",
"J. c #F8D2AC",
"K. c #F8D2B0",
"L. c #F8D3B1",
"P. c #FBE1A6",
"I. c #FCE6A6",
"U. c #FCE7AC",
"Y. c #FCE7AF",
"T. c #FCE8B1",
"R. c #FCE9B1",
"E. c #FCE8B2",
"W. c #FCE8B3",
"Q. c #FCE9B5",
"!. c #FBE6BA",
"~. c #FCEAB8",
"^. c #FCEBBB",
"/. c #FCEBBC",
"(. c #FCEBBE",
"). c #FCEDBE",
"_. c #FCECC1",
"`. c #FCEDC5",
"'. c #FCEDC6",
"]. c #FBE9CA",
"[. c #FDEFCE",
"{. c #FCEFCF",
"}. c #FDF1CC",
"|. c #FDF0CF",
" X c #FBECD6",
".X c #FCEDDD",
"XX c #FDF1D3",
"oX c #FDF1D5",
"OX c #FDF2D8",
"+X c #FDF3D9",
"@X c #FDF5DA",
"#X c #FDF3DC",
"$X c #FDF3DD",
"%X c #FDF3DE",
"&X c #FCEEE2",
"*X c #FDF5E0",
"=X c #FDF5E4",
"-X c #FDF7EC",
";X c #FEF9E8",
":X c #FDF8EC",
">X c #FDF8F1",
",X c #FDFAF5",
"<X c #FEFDF5",
"1X c #FDFAF9",
"2X c #FEFCFB",
/* pixels */
"                                                        ",
"                                                        ",
"                                                        ",
"                          >.L.                          ",
"                      O +.;.J..X,X                      ",
"                    X * #.-.C.].*X;X                    ",
"                    , 8 %.*.n.P.~.|.                    ",
"                # > e g V 8.s.l.A.T.oX>X                ",
"              # * 7 f M I 1.5.y.h.S.'.=X>X              ",
"              4 7 a z K ' ~ T ' p.N.U.'.oX              ",
"          2 8 a f z N I } ~ G T e.g.N.S.U.'.#X          ",
"        # 2 e g M J I ' ' } T ' 2.e.p.h.Z.~.#X>X        ",
"        # 2 p v I ' } } ' ' ' ' ' T ' i.c.T.#X>X        ",
"      @ # 2 p v I } } } ' ' ' ' T G G 9.l.T.#X>X1X      ",
"        # 2 p v I } } } } ' ' ' T G G e.c.T.#X>X        ",
"        # 2 p v I } } } } ' ' ' ' T T e.c.T.#X>X        ",
"        # 2 e v I } } } ' ' } } ' G T e.c.T.#X>X        ",
"      @ # 2 e v I } } } ' ' } } T G G 9.l.T.#X>X1X      ",
"        # 2 e v I } } } ' ' ' } ' G T e.c.T.#X>X        ",
"        # 2 e z J I ' ' ' } ' ' 2.2.9.a.N.Q.#X>X        ",
"        # 2 8 s z M K ' } ~ T ' 5.p.h.m.G.(.#X>X        ",
"            7 8 p f M I } ~ G ' i.k.S.T._.{.            ",
"              * 2 8 g N ' ' ' 5.f.Z.(.OX=X              ",
"                # 7 u l C <.y.d.c.I.|.-X                ",
"                  ; 1 u n &.j.V.I.).OX                  ",
"                    & < $.=.B.!.|.@X                    ",
"                    . + @.;.H. X:X<X                    ",
"                      O +.>.J.&X2X                      "
};
