/* XPM */
static char *a14md_grj3j[] = {
/* columns rows colors chars-per-pixel */
"48 54 139 2 ",
"   c None",
".  c #0E0E0E",
"X  c #071011",
"o  c #0D1313",
"O  c #141515",
"+  c #191515",
"@  c #1E1519",
"#  c #1C1C1B",
"$  c #251A17",
"%  c #2E1B17",
"&  c #23161A",
"*  c #2B161D",
"=  c #2E191B",
"-  c #341D1A",
";  c #381F1A",
":  c #341722",
">  c #3C1824",
",  c #232727",
"<  c #242828",
"1  c #2A2929",
"2  c #363634",
"3  c #3A3D3C",
"4  c #52261D",
"5  c #742C1F",
"6  c #461126",
"7  c #431E21",
"8  c #481E22",
"9  c #4A162B",
"0  c #4D192B",
"q  c #51172D",
"w  c #52192D",
"e  c #4E1530",
"r  c #531731",
"t  c #591831",
"y  c #661B34",
"u  c #691B36",
"i  c #761C3B",
"p  c #791C3C",
"a  c #4A2022",
"s  c #48363B",
"d  c #503C37",
"f  c #523D38",
"g  c #662B20",
"h  c #692D20",
"j  c #7F2B22",
"k  c #7B3F33",
"l  c #7C4034",
"z  c #652D41",
"x  c #7C2241",
"c  c #434E4C",
"v  c #4B4C4B",
"b  c #50504F",
"n  c #555452",
"m  c #71505C",
"M  c #7B7976",
"N  c #86301F",
"B  c #811D3F",
"V  c #842F20",
"C  c #812E2A",
"Z  c #992E2F",
"A  c #8A3526",
"S  c #873328",
"D  c #9E3B29",
"F  c #8E263A",
"G  c #902437",
"H  c #92233F",
"J  c #94293A",
"K  c #AB3C27",
"L  c #A13B2A",
"P  c #AE3F2C",
"I  c #A33532",
"U  c #A63039",
"Y  c #B33C31",
"T  c #B3313D",
"R  c #B8353C",
"E  c #C4373F",
"W  c #C53A3D",
"Q  c #CA3C3C",
"!  c #D03C3F",
"~  c #A5422F",
"^  c #B1422A",
"/  c #BC432D",
"(  c #A64230",
")  c #C2452E",
"_  c #DA4025",
"`  c #D0482F",
"'  c #CD4039",
"]  c #D44536",
"[  c #D84637",
"{  c #D44A31",
"}  c #DD4C32",
"|  c #D5433A",
" . c #E2482C",
".. c #E94A2E",
"X. c #E34E33",
"o. c #EC4E31",
"O. c #E55032",
"+. c #861943",
"@. c #8A1D43",
"#. c #941E46",
"$. c #961E48",
"%. c #9B1E4A",
"&. c #A31F4D",
"*. c #9C2444",
"=. c #9E2148",
"-. c #A62547",
";. c #AC2747",
":. c #AE2946",
">. c #A5214B",
",. c #AC2549",
"<. c #B52D44",
"1. c #BB3242",
"2. c #AC2050",
"3. c #C53740",
"4. c #C93841",
"5. c #857773",
"6. c #867873",
"7. c #887B7C",
"8. c #987D75",
"9. c #D45740",
"0. c #D55841",
"q. c #E15946",
"w. c #E26A53",
"e. c #838A87",
"r. c #878D88",
"t. c #8B8E8A",
"y. c #92918D",
"u. c #B7B3AD",
"i. c #BBB3AD",
"p. c #D7818D",
"a. c #D8828E",
"s. c #D390A7",
"d. c #E3DFD7",
"f. c #E3DED8",
"g. c #E3DED8",
"h. c #F9DDD1",
"j. c #F9DDD2",
"k. c #FBDED3",
"l. c #FFFFFF",
/* pixels */
"                                                                                                ",
"                                                                                                ",
"                                                                                                ",
"                                                                                                ",
"                                                                                                ",
"                                                                                                ",
"                                                                                                ",
"                                                                                                ",
"                                                                                                ",
"                                          O                                                     ",
"                                            O                                                   ",
"                              O O           O O     O                                           ",
"                                O O     O   O O     O O                                         ",
"                                  o o o o o o o o o o O O       O O O                           ",
"                                * * - - - * * * - ; - + O     O O O O O                         ",
"                  O O O       O q H Y / Y H +.H Y ) D - o O O O O O O                           ",
"                    O O O   o O m a.q. .q.p.s.p.q.o.) - o O O O O O O                           ",
"                      O O & & + t.k.w._ w.k.l.k.w. ./ - @ * + & * + O O                         ",
"                      O O w i * r.k.w._ w.k.l.k.w. ./ - 0 i * 0 i * O O O O O O                 ",
"                      @ 0 J U = c 8.0...9.8.e.8.9.o./ - r =.C I U = : 0 & O O O                 ",
"              O O   o = H 4./ a O % D ) D % X % D ) L 7 y <.] X.) 4 u @.* O O                   ",
"              O O O o - Y X.] *.9 + % ; - + O + - - 7 p T ] } } { ) T @.* o                     ",
"                O O o - / O.} Q F t r r r t t t r e y T | } } ' 1.3.J 0 @ O                     ",
"                  O o - / X.} } W ;.;.;.;.;.;.;.;.;.<.] } } } W ,.>.u * + O O                   ",
"                    o - / X.} } } ] ] ] ] ] ] ] ] ] ] } } } } } Q ,.%.i * O O                   ",
"                      $ g 5 V ` K N ` K N ` K N ` K N ` ^ A { ^ C =.@.w & O O O                 ",
"                    O O O < d ( k d ~ l d ~ k d ~ l d ( g - D h & i w O O O O O                 ",
"                    O O O M i.d 5.i.d 6.i.d 5.i.d 6.i.d + + - $ + * & O O O                     ",
"                      O O n M , y.g.3 v M , y.g.3 v M < o O o O O O O O                         ",
"                        O O O O M u.2 . O O M u.2 . O O O O O O O O                             ",
"                          O O O 1 2 # O O O 1 2 # O O O O O O O O                               ",
"                            O O O . O O O O O . O O O O O O O O O                               ",
"                            O O O O O O O O O O O O O O O O O O O                               ",
"                            O O O O O O O O O O O O O O O O O O O                               ",
"              O           O O . O O O O O O O O . O O O O O O O O O       O                     ",
"            O O O       O O # 2 1 O O O O O O # 2 1 O O O O O O O O O   O O O                   ",
"              O O O O O O . 2 u.M O O O O O . 2 u.M O O O O O O O O O O O O                     ",
"                O O O 1 M v 3 g.y., M b < M v 3 g.y., M n O O O O O O O O O                     ",
"                  O . 2 u.5.s i.6.d i.6.d i.6.d i.5.d i.7.& O & * + O O O O O                   ",
"                    O # 2 z x s l ( d k ( d l ~ d k ~ d z i & 0 i * O O O O O                   ",
"                      @ 6 G R j K ` V K ` V K ` V K ` V Z R S I U = : w & O                     ",
"                      = H Q } } } } } } } } } } } } } } } } ] [ Y 8 y @.*                       ",
"                      - Y } } } } } } } } } } } } } } } } ] <.;.-.#.%.@.*                       ",
"                    o - / X.} } } } } } } } } } W ' } } } } W :.&.&.B 0 @                       ",
"                  O o - / X.} ] ] ] } } } ] ] Q ,.1.] ] ] ] ] 1.&.&.u & + O                     ",
"                O O o - / X.] <.,.<.] X.] <.,.,.>.>.;.;.;.;.;.>.&.&.%.i * O O                   ",
"              O O O o - U 4.1.>.%.>.1.E 1.>.&.&.&.&.&.&.&.&.&.&.&.&.2.#.* O O O                 ",
"                O     * p %.&.&.&.&.&.$.@.@.@.@.@.@.@.@.$.&.&.&.&.&.%.p * O O O O               ",
"                        * y &.&.&.&.&.y * * * * * * * * u &.&.&.&.&.y *       O O               ",
"                          > y %.>.$.u >                 > y %.>.$.y >                           ",
"                            * p %.@.*                     * p %.@.*                             ",
"                              * u @.*                       * u @.*                             ",
"                              O : 0 &                       O : 0 &                             ",
"                              O O O O                       O O O O                             "
};
