/* XPM */
static char *arzdr_qnp0q[] = {
/* columns rows colors chars-per-pixel */
"48 54 138 2 ",
"   c None",
".  c #1E1E1F",
"X  c #1F1F20",
"o  c #231F21",
"O  c #1E2121",
"+  c #222222",
"@  c #2C2325",
"#  c #2C2628",
"$  c #2B2B2B",
"%  c #322325",
"&  c #3E2827",
"*  c #362329",
"=  c #3C232B",
"-  c #3B292F",
";  c #3F2C32",
":  c #3A3B3A",
">  c #442926",
",  c #492B27",
"<  c #43252C",
"1  c #442C2A",
"2  c #4D2C28",
"3  c #5A2B2D",
"4  c #4F2432",
"5  c #522433",
"6  c #592536",
"7  c #5F2A30",
"8  c #5E2538",
"9  c #572838",
"0  c #403C3A",
"q  c #6D332C",
"w  c #7B372C",
"e  c #602538",
"r  c #6C263C",
"t  c #6E293D",
"y  c #73263F",
"u  c #71283C",
"i  c #7D293D",
"p  c #7E2743",
"a  c #7A3349",
"s  c #713F4D",
"d  c #444442",
"f  c #4F4747",
"g  c #494847",
"h  c #565654",
"j  c #575855",
"k  c #595956",
"l  c #5C5B59",
"z  c #6E4E47",
"x  c #644B4A",
"c  c #6D4F49",
"v  c #70404B",
"b  c #704F48",
"n  c #6A544E",
"m  c #715049",
"M  c #615153",
"N  c #6B5650",
"B  c #775A61",
"V  c #74726E",
"C  c #767471",
"Z  c #7C7A76",
"A  c #8E372F",
"S  c #943B2D",
"D  c #8E2F3E",
"F  c #8B3636",
"G  c #943E31",
"H  c #9B3836",
"J  c #90303E",
"K  c #9B353C",
"L  c #9D383B",
"P  c #AA3E37",
"I  c #A33B39",
"U  c #AB3E3A",
"Y  c #9A4739",
"T  c #9C483A",
"R  c #AD4231",
"E  c #B44533",
"W  c #BA4535",
"Q  c #C24734",
"!  c #C64935",
"~  c #CD463C",
"^  c #D54D37",
"/  c #DA4D36",
"(  c #D0473C",
")  c #D44A3A",
"_  c #DB4E38",
"`  c #E14E37",
"'  c #E24F38",
"]  c #842745",
"[  c #842844",
"{  c #8C2D40",
"}  c #852E49",
"|  c #8F2849",
" . c #952D45",
".. c #95294A",
"X. c #9E294D",
"o. c #8E3344",
"O. c #953040",
"+. c #A22B4D",
"@. c #A82E4C",
"#. c #AB3543",
"$. c #A73148",
"%. c #AB3149",
"&. c #B53746",
"*. c #B83747",
"=. c #BD3B43",
"-. c #A22950",
";. c #C23E42",
":. c #864C41",
">. c #847673",
",. c #877871",
"<. c #8A7B75",
"1. c #9A7A72",
"2. c #C54041",
"3. c #CE5D4A",
"4. c #DB5D4E",
"5. c #DD6050",
"6. c #E3725E",
"7. c #A08077",
"8. c #CB7E83",
"9. c #8C8D89",
"0. c #908F8B",
"q. c #94938E",
"w. c #9F9B95",
"e. c #A59B95",
"r. c #A69C96",
"t. c #A39A94",
"y. c #A5A19B",
"u. c #A8A099",
"i. c #A9A19B",
"p. c #D58389",
"a. c #D191A0",
"s. c #E9C9BC",
"d. c #EDC9BD",
"f. c #CBC8C0",
"g. c #F2D2C6",
"h. c #F7D2C7",
"j. c #F5F5F0",
"k. c #FCF4F0",
/* pixels */
"                                                                                                ",
"                                                                                                ",
"                                                                                                ",
"                                                                                                ",
"                                                                                                ",
"                                                                                                ",
"                                                                                                ",
"                                                                                                ",
"                                                                                                ",
"                                                    +                                           ",
"                                                  +                                             ",
"                                          + +   + +           + +                               ",
"                                        + +     + +   +     + +                                 ",
"                          + +         + + O O O O O O O O O O                                   ",
"                        + + + + +     + @ > > > = * = > , > = *                                 ",
"                          + + + + + + O > G E U o.} o.U E U o.9 @       + + +                   ",
"                          + + + + + + O , E ' 4.p.a.p.4.' 5.8.B + . + + + +                     ",
"                        + + @ * @ @ * @ , E _ 6.h.k.h.6./ 6.d.0.$ % @ + + +                     ",
"                + + + + + + * r 6 = r 5 2 E _ 6.g.j.g.6./ 6.s.9.; r 6 @ +                       ",
"                + + + % 5 = < K I F  .8 2 E ' 3.7.9.7.3.' 3.1.h 1 K  .5 @                       ",
"                  + + = p u q W / ~ &.u 3 G E G 1 + 1 G E G 1 # 3 E ;.{ = O   + +               ",
"                    O * [ #.W ^ _ _ ~ #.i 3 2 > @ o @ > 2 > @ 5 O.~ _ P > O + +                 ",
"                    + @ 6 J =.=.~ _ _ ( #.u 6 6 8 e 8 6 6 6 e D ;.) _ E , O + +                 ",
"                  + + + = y +.%.2._ _ _ ~ &.$.$.$.$.$.$.$.$.$.;.) _ _ E , O +                   ",
"                  + + * r | @.;.) / ^ / _ ~ ~ ~ ~ ~ ~ ~ ~ ~ ~ ) _ ^ ^ R > O                     ",
"                + + + @ 6 ]  .F E ! G R ! S R ! S R ! S R ! S R ! S w q %                       ",
"                + + + + @ 6 r < q G 2 q Y m :.Y z :.T m :.Y z :.T c 0 @ + +                     ",
"                    + + + @ * @ % & @ % x e.,.n u.<.n e.,.n u.<.n t.V + .                       ",
"                      + + + + + + + + X : C j j f.q.d V j j f.q.d V l + .                       ",
"                            + + + + + + + + + g y.Z $ + + g y.Z $ + + +                         ",
"                              + + + + + + + + $ d : + + + $ d : + + X                           ",
"                              + + + + + + + + + . + + + + + . + + +                             ",
"                              + + + + + + + + + + + + + + + + + + +                             ",
"                              + + + + + + + + + + + + + + + + + + +                             ",
"                    +       + + + + + + + + + . + + + + + + + + . + +           +               ",
"                  + + +   + + + + + + + X + : d $ X + + + X + : d $ X X       + + +             ",
"                    + + + + + + + + + + + $ Z u.g + + + + + $ Z u.g + + + + + + +               ",
"                    + + + + + + + O + l V d q.f.j j C : k V d q.f.k j C : + + +                 ",
"                  + + + + + @ * @ o - >.t.n <.u.N ,.t.n ,.t.n <.u.M >.w.g . +                   ",
"                  + + + + + * r 6 < t v c T :.b T :.m T :.m T :.x a s f $ +                     ",
"                    + @ 4 = < L I G U H S Q R S Q R S Q R S Q R A #.D 5 @                       ",
"                    O = p r 7 U ~ ~ ) ^ ^ _ ^ ^ / ^ ^ / ^ ^ _ ^ ^ ) ;.D =                       ",
"                      * ] ....@.%.*.( _ _ _ _ _ _ _ _ _ _ _ _ _ _ _ _ R >                       ",
"                      @ 5 ] X.+.%.;.) _ _ _ ~ ;.) _ _ _ _ _ _ _ _ _ _ E > O                     ",
"                    + + = r X.+.&.~ ~ ~ ~ ~ &.%.;.~ ( _ _ _ ( ~ ( _ _ E , O +                   ",
"                  + + * r ..X.X.@.%.%.$.%.%.@.+.@.$.&.( _ ( &.$.&.( _ E > O + +                 ",
"                + + + = ] -.X.X.X.X.X.X.-.-.+.+.+.+.@.&.;.*.@.X.@.&.;.K < O + + +               ",
"              + + + + * y ..X.X.X.X.+...] ] ] [ ] ] [ [ ..+.X.X.+.+...y *     +                 ",
"              + +       < r ..+.X.+...r = * = = = = * = r ..+.X.+...r =                         ",
"                          < r ..+...r < +             + < r ..+...r <                           ",
"                          + = ] ..y =                   + = ] ..y =                             ",
"                            * p r =                       * p r =                               ",
"                            % 5 = +                       % 5 = +                               ",
"                            + + + +                       + + + +                               "
};
