/* XPM */
static char *auame_0nlwb[] = {
/* columns rows colors chars-per-pixel */
"56 56 198 2 ",
"   c None",
".  c #0E1112",
"X  c #131313",
"o  c #1D1514",
"O  c #17191A",
"+  c #1C1C1D",
"@  c #161718",
"#  c #201614",
"$  c #251814",
"%  c #2C1B16",
"&  c #2C161B",
"*  c #231D1D",
"=  c #2C1B1A",
"-  c #25161A",
";  c #33171F",
":  c #35191E",
">  c #391D1B",
",  c #331D16",
"<  c #26201E",
"1  c #35211B",
"2  c #3C2119",
"3  c #1C1E20",
"4  c #2D1F22",
"5  c #3C1B23",
"6  c #331A22",
"7  c #1F2020",
"8  c #232323",
"9  c #2A2525",
"0  c #2C2827",
"q  c #2B2728",
"w  c #262C2B",
"e  c #2D2929",
"r  c #242827",
"t  c #322422",
"y  c #392622",
"u  c #3B2824",
"i  c #322D2C",
"p  c #352C2B",
"a  c #35302E",
"s  c #39312E",
"d  c #2A3332",
"f  c #273736",
"g  c #353432",
"h  c #3B3332",
"j  c #3F3935",
"k  c #25302F",
"l  c #401E1E",
"z  c #44231C",
"x  c #4C271C",
"c  c #4E281C",
"v  c #51291D",
"b  c #5A2C1F",
"n  c #602F1F",
"m  c #431B24",
"M  c #4A1E25",
"N  c #511F29",
"B  c #4C222A",
"V  c #4B2723",
"C  c #522522",
"Z  c #562921",
"A  c #5D2D22",
"S  c #53212B",
"D  c #5D232C",
"F  c #5B2B29",
"G  c #552929",
"H  c #5C3125",
"J  c #413735",
"K  c #443937",
"L  c #463A39",
"P  c #493C3A",
"I  c #612F20",
"U  c #63252E",
"Y  c #69262F",
"T  c #642A2A",
"R  c #6C292E",
"E  c #742E2E",
"W  c #792F2F",
"Q  c #633020",
"!  c #6B3525",
"~  c #6E312A",
"^  c #743624",
"/  c #7C3926",
"(  c #75332B",
")  c #7B332C",
"_  c #7A3A27",
"`  c #632330",
"'  c #6B2630",
"]  c #4D413D",
"[  c #40413F",
"{  c #52423E",
"}  c #2D4645",
"|  c #324543",
" . c #374B49",
".. c #385957",
"X. c #36524F",
"o. c #3C615E",
"O. c #3E6764",
"+. c #4B4B47",
"@. c #554441",
"#. c #594743",
"$. c #554A43",
"%. c #5C4A45",
"&. c #5B534C",
"*. c #53504C",
"=. c #51514F",
"-. c #624D49",
";. c #604C47",
":. c #65524C",
">. c #6B544E",
",. c #68584E",
"<. c #6F5650",
"1. c #675B53",
"2. c #705751",
"3. c #725952",
"4. c #40625F",
"5. c #6A6259",
"6. c #746157",
"7. c #7A665B",
"8. c #7F695D",
"9. c #776258",
"0. c #496864",
"q. c #566C69",
"w. c #49716D",
"e. c #467D79",
"r. c #4A7C78",
"t. c #696D6A",
"y. c #786E63",
"u. c #776D63",
"i. c #78726A",
"p. c #767470",
"a. c #6E706D",
"s. c #843C27",
"d. c #82362C",
"f. c #863A2B",
"g. c #8B3D2A",
"h. c #883D27",
"j. c #903F2B",
"k. c #8E4029",
"l. c #924129",
"z. c #99442A",
"x. c #806A5F",
"c. c #826B60",
"v. c #8B7465",
"b. c #8A796C",
"n. c #957C6C",
"m. c #897D70",
"M. c #4A817D",
"N. c #88827A",
"B. c #9C8271",
"V. c #96897B",
"C. c #9A8B7C",
"Z. c #AB8D7A",
"A. c #A68A78",
"S. c #AE907D",
"D. c #B0927F",
"F. c #558884",
"G. c #579A95",
"H. c #528D89",
"J. c #648783",
"K. c #769590",
"L. c #5BA29D",
"P. c #70A39D",
"I. c #5FA6A0",
"U. c #62B2AC",
"Y. c #6BB7B0",
"T. c #69C5BE",
"R. c #6ECBC3",
"E. c #78D3CB",
"W. c #71CFC7",
"Q. c #898F8A",
"!. c #96948E",
"~. c #9C9388",
"^. c #92918C",
"/. c #A89685",
"(. c #B29682",
"). c #BA9F8A",
"_. c #B39D8A",
"`. c #A19E98",
"'. c #B9A18D",
"]. c #BCA894",
"[. c #8DB4AE",
"{. c #A8B0A9",
"}. c #C3AA94",
"|. c #C6B29D",
" X c #CCB8A3",
".X c #D2BDA7",
"XX c #81C6BF",
"oX c #A4C7BF",
"OX c #DAC5AE",
"+X c #DDC8B1",
"@X c #95CDC5",
"#X c #B5D2C9",
"$X c #D2D6CE",
"%X c #D9D9D1",
"&X c #C8D1C9",
"*X c #E5DFD6",
"=X c #C2E0D8",
"-X c #E7E1D8",
/* pixels */
"        e 9.S.Z.6.i u..XOXOXOXV.a + 8 8 8 8 8 8 8 8 8 8 8 8 8 8 8 8 8 8 8 8 + a V.+X+XV.g &.A.Z.Z.Z.9.e         ",
"      j $.v.S.).C.5.y.V.V.V.V.u.P j j q 9 h J J J j q 8 h J J J j e 9 h J J h P u.C.C.5.e 1.).}.).S.v.$.j       ",
"    q :.B.A.(.|. X].y.h a g g P :.2.:.h i %.2.<.2.:.h i %.2.>.2.:.h i %.2.>.<.:.L a g q q u.|..X|.(.A.B.:.8     ",
"  j ,.v.S.}.'.m.i.i.1.P L L L { -.:.%.a e #.:.-.:.%.a e #.:.-.:.%.a e #.:.-.:.%.i 8 h P ] 1.y.y.m.'.}.(.,.8 O   ",
"e #.n.A.(.}./.+.9 i ] >.2.2.2.-.P K J e 9 j K K K J e 9 j K K K J e 9 j K K K J i s -.3.<.{ i 9 +./.].B.,.i e e ",
"7.,.#.m.].m.&.#.#.#.P L @.%.%.P i e e 8 8 e e e e e 8 8 q e e e e 8 8 e i e e i P %.%.%.%.#.#.#.#.&.&.#.,.7.7.7.",
"S.v.$.i.~.*.i %.2.<.K 8 i J J i 4 + + + + + + + + + + + + + + + + + + + + + + 8 ] %.P j J #.<.2.-.a + 8 1.(.(.Z.",
"Z.(._.i.] j J P #.@.h 8 8 q 9 8 X X X X X X X X X X X X X X X X X X X X X X X X 9 i e 9 q j @.#.{ L e 8 u.|.).Z.",
")._.C.&.8 i P P K h 9 + + O O * 1 $ X % 2 2 2 2 $ X # ; > 2 2 $ X % 2 2 2 2 $ X 1 u * O + 9 h h h h e 8 &.V._.'.",
".XC.L 8 9 h L L h 9 + X X X X 2 ^ x o b s.s.s.s.x o 5 T / s.s.z o b s.s.s./ z o A ! = X X + 8 8 8 8 8 8 8 L V. X",
"+XC.e e P j i i 9 O . X 2 v v ! g.v # I z.z.z.l.v o m R g.z.l.c # I z.z.g.) z # Q s.b x x 1 + + q L { P i 8 &.i.",
"|.N.g L :.L 9 8 * o X o I g.g.g.g.x # I l.l.l.g.c o m R f.l.g.x # I l.l.d.T : o I l.k.k.g.x X O i %.2.<.P 9 8 8 ",
"1.$.j P #.%.] e y A > o Q g.) d.g.x # I l.l.l.g.c o m R f.g.E > # I l.l.d.U 6 o I l.z.z.k.v X + 9 j P #.P h 8 + ",
"+ e K L P %.#.q V s.v # Q f.R E g.c # I l.l.l.g.c o M E g.f.R : o I l.l.d.T ; o Q l.g.g.g.v X O + 8 e L P K i 8 ",
"7 e K P K j e O z s.v # Q f.R E h.c # I l.l.l.g.x # Z g.g.g.f.z # I l.l.d.T ; o Q g.E ) g.v X . X + e K P K e 8 ",
"e h K P K e < 1 b s.c # Q f.R E g.c # I g.d.f.g.x # I l.l.g.) z # I g.f.E U ; o Q g.R E h.v X % 1 8 q h h i 9 7 ",
"K K K P K q t ! g.g.x # I f.R E f.c # I g.E ( g.c # I l.l.d.R : o Q g.E ` U : o I f.R E h.x o b ^ u 8 8 8 9 8 8 ",
"i i i i i + 1 _ z.g.x # I g.R R E z # I g.) d.g.x # I l.l.d.U ; o Q f.R ` U : o C E T E g.c # Q h.G t 8 a P ] ] ",
"q 0 q 8 8 O > ^ z.g.x # I g.R ` U : o I l.g.g.g.x # I l.l.d.T ; o Q g.R ` U : o m ` T E f.x # A f.R B 9 L <.2.2.",
"#.%.#.j 9 V ^ s.z.g.x # I f.R ` D : o Q g.) ) g.x # I l.l.d.T ; # Q g.R ` U : o m Y ) ) E > o C ) d.T 0 h #.%.#.",
"<.<.:.J 9 H s.k.z.g.x # I g.E Y U : o Q f.R E g.x # I l.l.d.T 6 o Q g.E Y U : o m R g.f.T 6 o m R g.! 0 i K L L ",
"@.P a 9 8 9 V / z.g.x # I l.g.) T ; o Q f.R E g.x # I l.l.d.T 6 o I l.g.) U : o m R g.f.T 6 o m R g.! 0 i K P L ",
"L h 8 | ..f = Z ! Q 2 o x ^ ) ) U : o Q f.R E g.c o Z f.g.d.U 6 o I g.f.) E l o 6 G I I B & o C ) ) F 0 i L P P ",
"L s r r.U.4.9 0 e e 9 8 8 y D Y U : o Q f.R E f.c o m E g.d.T 6 o Q g.E E d.x X + 9 0 0 9 O o A f.E B 9 i K L K ",
"i 9 r M.E.[.Q.F.J.Q.K.r.} t T E U : o Q f.R Y E z o m R f.g.) l # I g.) ~ H 1 o X k O...8 X o z Q ( F 9 8 i i i ",
"q 8 8 e.E.=X&XXX@X$X#XU...y _ d.T ; o Q f.R ` U : o m R f.l.h.x # I l.l.! 9 r d w ..U.L.| w d r u ^ ! 9 8 q q q ",
"#.K q M.W.K.t.0.q.a.q...f u _ f.T ; o Q f.R ` D : o m R f.g.E > # I l.z.! 0 ..G.G.U.E.R.L.G.H.} t T F 9 j #.#.#.",
"2.{ q 0.G.X.+ + + + + + + t _ d.T ; o Q f.R ` U : o m R f.f.R : # Q l.g.I 0 e.W.T.U.U.U.U.R.T.o.4 S B 9 L >.2.<.",
"#.J 8 d | w + X X X X X . = ^ f.T ; # Q g.R ` U : o m R f.l.d.z # Q g.E C 9 M.T.M.| | |  .G.T.O.4 S B 9 h @.@.@.",
"L J i 8 * + * 1 > & o X % c / d.T ; # Q g.R ` U : o m R f.z.k.c o Z ) Y m q J.@X0.X o X + J.@Xq.4 S B 9 i K L K ",
"K K K i 8 X % ! / D ; o b g.k.d.T 6 o Q g.R ` U : o m R f.z.g.c o m Y ` m q Q.$Xa.8 8 8 e !.$Xt.4 S B 9 i K L K ",
"i i i q 8 2 n s.f.Y 6 # Q z.z.d.U 6 o I g.) E U : o C ) g.l.g.c o m ` ` m * =.^.!.!.!.!.!.!.N.[ * S B 9 9 i i i ",
"q e q 8 9 Q g.k.d.T 6 o I l.g.d.R : o I l.l.d.T ; o I l.l.l.g.c o m ` ` M $ o g `.-X*X-X%XN.q X & S B 9 8 q q q ",
"#.%.#.j 9 G ) g.d.T 6 o I g.) E / z # I l.l.d.U ; o Q l.l.l.g.c o m ` ` T I , + =.p.p.p.a.[ o & M D B 9 j #.#.#.",
"<.2.<.L 9 B R f.d.T 6 o Q g.E ) g.c # I l.l.f.R : o I k.g.g.g.c o m ` U E g.v X X + + + + X o m ` ` B 9 L >.2.<.",
"@.#.@.h 9 B R f.d.T 6 # I j.g.g.g.x # I l.l.g.d.z # I g.E ) g.c o m ` U E g.v X . X X X X . o m ` ` B 9 h @.@.@.",
"L K h 9 4 y F f.f.T 6 o Q j.f.g.g.x # I l.l.l.k.x # Q f.R E h.c o m ` ` E h.v X % 2 2 2 2 $ o m ` ` B 9 i K L K ",
"K h 9 8 8 8 u _ d.U 6 o Q f.R E g.c # I l.l.l.g.x # Q g.R E h.c o m ` U E h.c o b s.s.s.s.z o m ` ` B 9 i K L K ",
"i 9 8 X.w.f * x C 5 - o z F D E h.c # I l.l.l.g.x # Q g.R E h.c o m Y E f.g.x # I z.z.z.l.c o m ` ` B 9 9 i i i ",
"q 8 8 r.Y.w.g d g g g d r t S E g.c # I l.l.l.g.x # Q g.R E h.c o m R f.l.g.x # I l.l.l.g.c o m ` Y B 9 8 q e q ",
"#.K q e.E.oX{.P.P.{.[.H. .9 S E h.c # I l.l.l.g.x # I f.R E g.c o m R f.z.g.x # I l.l.l.g.c o m Y ) A 0 h #.%.#.",
"2.{ e e.E.#X#XY.[.&X@XI.X.9 S E h.c o Z g.g.l.g.x # I f.R E g.c o m R f.z.g.x # I l.l.l.g.c o m R g.! 0 K >.2.<.",
"@.J q M.R.J.+. . .=.+.| k t S E h.c o M E g.z.g.x # I f.R E g.c o m R f.z.g.x # I l.l.l.g.c o m R g.! 9 g @.@.@.",
"K s 8 o.F.} X X X X X o O 4 S W h.c o m R f.g.) z # Q f.R E g.c o m R f.z.g.x # I l.l.l.k.c o m R g.! 9 i K L L ",
"P h 8 r d r * o X X X X X - N W g.c o m R f.f.R : # Q g.R E h.c o m R f.z.g.x # A l.l.l.g.x o m R g.! 9 i K L K ",
"P L h 9 * V H b v v % o 2 Z U W g.v o m E g.f.T 6 # Q j.d.f.g.c o C d.j.z.l.c o C d.j.g.) z o m ' ) F 9 8 i i i ",
"K K J i 9 H s.s.s./ z o b / U R / x o 5 T ) / D ; o b s.s.s./ z o v s.s.s.s.z o 5 T ) / D ; o 5 D D B 9 8 q q q ",
"e e e 8 8 1 z z z 2 $ X % > ; ; > $ X # ; > > & o X % 2 2 2 2 $ X % 2 2 2 2 $ X # ; > > & o X # & & * 8 j #.#.#.",
"i i i q 8 + X X X X X X X X X X X X X X X X X X X X X X X X X X X X X X X X X X X X X X X X X X X X X 8 P >.2.<.",
":.:.-.L 8 + + + + + + + + + + + + + + + + + + + + + + + + + + + + + + + + + + + + + + + + + + + + + + 8 h @.#.@.",
":.:.:.#.j 9 q ] $.#.#.#.#.#.#.j 8 a $.$.#.#.$.$.a 8 j $.#.#.#.$.] e 8 ] $.#.#.#.$.] 8 e ] $.#.#.$.$.K 8 i K K K ",
"P P P -.:.h h x.B.B.B.B.B.B.B.,.< { n.B.B.B.B.n.{ < ,.B.B.B.B.B.v.j 0 8.B.B.B.B.B.7.0 j v.B.B.B.B.B.3.e i K P L ",
"K K L #.-.#.#.,.6.8.8.8.8.x.x.#.8 P 8.c.8.8.c.8.P 8 #.x.x.8.8.c.6.s 0 ,.c.8.8.8.6.%.s K 9.c.8.x.7.3.$.j j P P P ",
"L L K K P -.%.i e K K K K K K h 8 i K K K K K K i 8 h K K K K L K e 9 j K K L K i q h K K K K L j e e J K K K K ",
"e e e e e h h 8 8 q e e e e e 9 8 8 e e e e e e 8 8 9 e e e e e q 8 8 9 e e e q 8 8 e e e e e e 9 8 8 e i e e e ",
"8 8 8 8 8 8 8 8 8 8 8 8 8 8 8 8 8 8 8 8 8 8 8 8 8 8 8 8 8 8 8 8 8 8 8 8 8 8 8 8 8 8 8 8 8 8 8 8 8 8 8 8 8 8 8 8 "
};
