/* XPM */
static char *a3fmt_v60xy[] = {
/* columns rows colors chars-per-pixel */
"56 56 172 2 ",
"   c None",
".  c #141212",
"X  c #161819",
"o  c #1C1C1D",
"O  c #241C1C",
"+  c #2C1C17",
"@  c #351F18",
"#  c #3D1D1F",
"$  c #24201E",
"%  c #2B211E",
"&  c #39231C",
"*  c #1E1F20",
"=  c #361A20",
"-  c #3A1A20",
";  c #1F2020",
":  c #232222",
">  c #2A2625",
",  c #272827",
"<  c #2B2827",
"1  c #292728",
"2  c #262A2A",
"3  c #2D2929",
"4  c #352423",
"5  c #3C2525",
"6  c #3B2824",
"7  c #322D2C",
"8  c #392D2E",
"9  c #3D2228",
"0  c #35302E",
"q  c #322F31",
"w  c #293332",
"e  c #263939",
"r  c #353331",
"t  c #3B3332",
"y  c #373837",
"u  c #3E3834",
"i  c #3F3F3E",
"p  c #42231D",
"a  c #4B251D",
"s  c #4E281D",
"d  c #52291D",
"f  c #5D2D1F",
"g  c #602E1F",
"h  c #432823",
"j  c #4B2C22",
"k  c #49202A",
"l  c #412528",
"z  c #5B232D",
"x  c #552929",
"c  c #5C292A",
"v  c #593024",
"b  c #413635",
"n  c #443937",
"m  c #463A39",
"M  c #493C3A",
"N  c #64252E",
"B  c #602B2A",
"V  c #6D292E",
"C  c #722E2C",
"Z  c #663426",
"A  c #6D3525",
"S  c #6B302B",
"D  c #713524",
"F  c #793825",
"G  c #733429",
"H  c #7B332C",
"J  c #783A28",
"K  c #713827",
"L  c #46403C",
"P  c #4D423D",
"I  c #52423F",
"U  c #3F3A42",
"Y  c #2E4544",
"T  c #304341",
"R  c #36524F",
"E  c #385754",
"W  c #3D605D",
"Q  c #464543",
"!  c #4D4742",
"~  c #4C4748",
"^  c #544441",
"/  c #594743",
"(  c #534942",
")  c #5C4A45",
"_  c #5B534C",
"`  c #56504A",
"'  c #624D49",
"]  c #604C47",
"[  c #65524C",
"{  c #6B544E",
"}  c #68584E",
"|  c #6F5650",
" . c #635951",
".. c #6C5D54",
"X. c #625F5C",
"o. c #705751",
"O. c #725952",
"+. c #40625F",
"@. c #6A6259",
"#. c #736156",
"$. c #7A665B",
"%. c #7F695E",
"&. c #776359",
"*. c #416C69",
"=. c #49716E",
"-. c #467C79",
";. c #497B77",
":. c #776D63",
">. c #786E63",
",. c #7B7267",
"<. c #7D7368",
"1. c #7E7B77",
"2. c #833C27",
"3. c #82372C",
"4. c #853A2A",
"5. c #8C3E29",
"6. c #883D27",
"7. c #913E2B",
"8. c #8E4029",
"9. c #94422A",
"0. c #806A5F",
"q. c #826C61",
"w. c #897364",
"e. c #8D7B6D",
"r. c #877365",
"t. c #937B6B",
"y. c #897D70",
"u. c #4A817D",
"i. c #8C8073",
"p. c #9C8271",
"a. c #96897B",
"s. c #9A8B7C",
"d. c #AB8D7A",
"f. c #A68A78",
"g. c #AE907D",
"h. c #B0927F",
"j. c #4F8884",
"k. c #599F99",
"l. c #618682",
"z. c #799E98",
"x. c #62B1AB",
"c. c #69BFB8",
"v. c #6EC8C0",
"b. c #73CDC6",
"n. c #7AD3CB",
"m. c #76D1C9",
"M. c #9F9181",
"N. c #999590",
"B. c #A39484",
"V. c #AE9987",
"C. c #B29682",
"Z. c #B39D8A",
"A. c #BA9F8A",
"S. c #B9A18D",
"D. c #BCA995",
"F. c #BCA692",
"G. c #91B6AF",
"H. c #AFAAA4",
"J. c #BCB6AF",
"K. c #C1A590",
"L. c #C3A994",
"P. c #C4AE99",
"I. c #C6B29D",
"U. c #CCB8A3",
"Y. c #D1BCA6",
"T. c #D2BEA9",
"R. c #DAC5AE",
"E. c #DCC7B0",
"W. c #DFCAB3",
"Q. c #A8CBC3",
"!. c #BADCD4",
"~. c #C4E6DD",
/* pixels */
"        3 &.g.d.#.7 :.T.R.R.R.a.0 o : : : : : : : : : : : : : : : : : : : : o 0 a.E.E.a.r _ f.d.d.d.$.3         ",
"      u ) w.g.A.s.@.>.a.a.a.a.:.M u u 1 > t b b b u 1 : t b b b u 3 > t b b t M :.s.s.@.3 ..A.K.A.g.w.) u       ",
"    1 [ p.f.C.P.U.D.>.t 0 r r M [ o.[ t 7 ) o.{ o.[ t 7 ) o.{ o.[ t 7 ) o.{ | [ m 0 r < 1 :.I.Y.P.C.f.p.[ :     ",
"  u } w.g.K.S.y.,.,. .M m m m I ' [ ) 0 3 / [ ' [ ) 0 3 / [ ' [ ) 0 3 / [ ' [ ) 7 : t M P  .>.>.y.S.L.C.} : X   ",
"3 ( t.f.C.L.B.! > 7 P { o.o.o.' M n b 3 > u n n n b 3 > u n n n b 3 > u n n n n 7 t ' O.| I 7 > ! B.F.p.} 7 3 3 ",
"$.} ( y.D.e._ / / / M m I ) ) M 7 3 3 : : < 3 3 3 3 : : 1 3 3 3 3 : : < 3 3 3 7 M ) ) ) ) / / / / _ _ ( } $.$.$.",
"g.w.( ,.M.` 7 ) o.| n : 7 b b 7 : : : : : : : : : : : : : : : : : : : : : : * > I ) m t b / | o.' 0 o : ..C.C.d.",
"d.C.V.,.Q u b M / ^ t : : > > >                                                 7 7 3 > 1 u ^ / I m 3 : :.I.S.d.",
"A.Z.s._ : 7 M M n t > o o : :                                                     * : ; : 3 t t t t 3 : _ a.Z.F.",
"T.s.m : : t m m t > o .                                                                   : : : : > : : : m a.U.",
"W.s.3 3 M u 7 7 8 9 O .                                                                     ; ; > m I M 7 : _ <.",
"I.i.r m [ m > : 5 z - .                                                                       * 7 ) o.| M > : : ",
" .( u M / ) P 3 h G a .                                                                       : > t M / M t : o ",
"o 3 n m M ) / < h 2.d .                                                                       : : : 3 m M n 3 : ",
"; 3 n M n u 3 X p 2.d .                                                                           : 3 n M n 3 : ",
"7 t n M n 3 $ & f 2.d .                                                                           : 1 t t 7 > ; ",
"n n n m n < 4 A 5.5.s .                                                                           : : : > > : : ",
"7 7 7 7 7 o % F 7.H p .                                                                             : : 0 M I P ",
"1 < 1 : : o @ F 4.N = .                                                                               : M | o.o.",
"/ ) / u > j D 6.3.N = .                                                                               : u / ) / ",
"| | [ b > v 2.8.3.N = .                                                                               : 7 n m m ",
"^ M 0 > : > j 2.3.N = .                                                                               : 7 n m m ",
"m t : T E w % v S N - .                                                                               : 7 m M m ",
"m 8 < ;.x.+.: > l z - .                                                                               : 7 n m n ",
"7 > , u.m.G.1.y = z - .                                                                               : > 7 7 7 ",
"3 : : -.n.~.J.~ = z - .                                                                               : : 1 3 < ",
"/ n < u.b.z.X.r h G a .                                                                               : u / ) / ",
"o.I < *.k.E o o j 2.d .                                                                               : n { o.| ",
"^ b : w T 2 o . p 2.d .                                                                               : t I ^ ^ ",
"m b 7 : o X o @ f 2.d .                                                                               : 7 n m n ",
"m n n 7 : X + A 8.5.s .                                                                               : 7 n m n ",
"7 7 7 < : & g 2.9.8.s .                                                                               : > 7 7 7 ",
"< 3 3 : > Z 5.8.8.5.s .                                                                               : : < 3 < ",
"/ ) / u > x H 5.4.C # .                                                                               : u / ) / ",
"| o.| m > k V 4.3.N = .                                                                               : n { o.| ",
"^ / ^ t > k V 4.3.N = .                                                                               : t ^ ^ ^ ",
"m n t > $ - c 4.4.N = .                                                                               : 7 n m m ",
"n t > : : : 6 J 3.N = .                                                                               : 7 n m n ",
"7 > : R =.e O j B z - .                                                                               : > 7 7 7 ",
"< : : ;.c.=.r : 9 z - .                                                                               : : < 3 < ",
"/ n < -.n.Q.N.i = z - .                                                                               : u / ) / ",
"o.I 3 -.n.!.H.Q = z - .                                                                               : n { o.| ",
"/ b < u.v.l.Q < 4 z - .                                                                               : t ^ ^ ^ ",
"n 8 : W j.Y O 6 x z - .                                                                               : 7 n m n ",
"M t : , w , 6 K H N - .                                                                               : 7 n m n ",
"M n t > O h Z 5.5.H p .                                                                               : > 7 7 7 ",
"n n b 3 > Z 5.5.5.5.s .                                                                               : : 1 < < ",
"3 3 3 : > A 7.H 3.5.d .                                                                               : u / / / ",
"7 7 7 > > v G c B D p X                                                                               : n { o.| ",
"[ [ ' n : 4 4 4 4 4 > o o ; * : : : ; * ; ; ; ; : : : ; ; ; ; ; ; : : : ; ; ; ; * ; : : ; ; ; ; ; ; ; : t I / ^ ",
"[ [ [ / u : , L ( ( ( ( ( ( ( u : 0 ( ( ( ( ( ( 0 : u ( ( ( ( ( P r 7 L ( ( ( ( ( L 3 q P ( ( ( ( ( n : 7 n m n ",
"M M M ' [ t t 0.p.p.p.p.p.p.p.} $ I t.p.p.p.p.t.I $ } p.p.p.p.p.t.( L q.p.p.p.p.p.q.U ~ e.p.p.p.p.p...3 7 n M m ",
"n n m / ' / / } #.%.%.%.%.0.0./ : M %.0.%.%.q.%.M : / 0.0.%.%.q.&.m u ..q.%.0.%.#.[ m ^ &.0.%.0.$.O./ u u M M M ",
"m m n n M ' ) 7 3 n n n n n n t : 7 n n n n m n 7 : t n n n n M n 3 > u m n m n 7 < u n n n n m u 3 3 b n n n n ",
"3 3 3 3 3 t t : : < 3 3 3 3 3 > : : 3 3 3 3 3 3 : : > 3 3 3 3 3 < : : > 3 3 3 > : : 3 3 3 3 3 3 > : : 3 7 3 3 3 ",
": : : : : : : : : : : : : : : : : : : : : : : : : : : : : : : : : : : : : : : : : : : : : : : : : : : : : : : : "
};
