/* XPM */
static char *aly32_57bxi[] = {
/* columns rows colors chars-per-pixel */
"56 56 179 2 ",
"   c #1D1F1F",
".  c #1E1F1F",
"X  c #1E1F20",
"o  c #1F2020",
"O  c #202020",
"+  c #202021",
"@  c #202121",
"#  c #212121",
"$  c #212222",
"%  c #222222",
"&  c #232222",
"*  c #232322",
"=  c #232323",
"-  c #242323",
";  c #242423",
":  c #252424",
">  c #262424",
",  c #272525",
"<  c #272625",
"1  c #282625",
"2  c #282626",
"3  c #292626",
"4  c #292726",
"5  c #292727",
"6  c #2A2727",
"7  c #2B2827",
"8  c #2B2828",
"9  c #2C2828",
"0  c #2C2928",
"q  c #2D2929",
"w  c #2D2A29",
"e  c #2E2A29",
"r  c #2E2A2A",
"t  c #2F2A2A",
"y  c #2F2B2A",
"u  c #302B2B",
"i  c #302C2B",
"p  c #312C2B",
"a  c #312D2B",
"s  c #322C2C",
"d  c #332D2C",
"f  c #332D2D",
"g  c #332E2C",
"h  c #342E2D",
"j  c #342E2E",
"k  c #352E2E",
"l  c #352F2E",
"z  c #362F2E",
"x  c #362F2F",
"c  c #37302F",
"v  c #383030",
"b  c #383130",
"n  c #393130",
"m  c #393131",
"M  c #393230",
"N  c #3A3231",
"B  c #3B3231",
"V  c #3B3331",
"C  c #3B3232",
"Z  c #3B3332",
"A  c #3C3332",
"S  c #3C3333",
"D  c #3D3433",
"F  c #3E3433",
"G  c #3E3434",
"H  c #3E3534",
"J  c #3F3534",
"K  c #3F3535",
"L  c #403535",
"P  c #403634",
"I  c #403635",
"U  c #413635",
"Y  c #413636",
"T  c #413736",
"R  c #423736",
"E  c #433737",
"W  c #433836",
"Q  c #433837",
"!  c #443837",
"~  c #443838",
"^  c #443938",
"/  c #453938",
"(  c #453939",
")  c #463938",
"_  c #463939",
"`  c #463B38",
"'  c #463A39",
"]  c #473A39",
"[  c #473A3A",
"{  c #473B3A",
"}  c #483B39",
"|  c #483B3A",
" . c #493B3A",
".. c #493C3A",
"X. c #493C3B",
"o. c #4A3C3B",
"O. c #4A3D3B",
"+. c #4A3E3A",
"@. c #4C3F3B",
"#. c #4B3D3C",
"$. c #4C3E3C",
"%. c #4D3F3C",
"&. c #4D3E3D",
"*. c #4D3F3D",
"=. c #4E3F3D",
"-. c #4E403D",
";. c #4E403E",
":. c #4F403E",
">. c #50403E",
",. c #50413F",
"<. c #51413F",
"1. c #51423F",
"2. c #52423F",
"3. c #524240",
"4. c #534240",
"5. c #534340",
"6. c #534341",
"7. c #544341",
"8. c #544441",
"9. c #554441",
"0. c #564542",
"q. c #574642",
"w. c #574643",
"e. c #584643",
"r. c #594744",
"t. c #5A4844",
"y. c #5B4845",
"u. c #5B4945",
"i. c #5C4945",
"p. c #5D4A46",
"a. c #5E4A47",
"s. c #5F4B47",
"d. c #604C48",
"f. c #614C48",
"g. c #614D48",
"h. c #624D49",
"j. c #624E49",
"k. c #644F49",
"l. c #654F4A",
"z. c #654F4B",
"x. c #65504A",
"c. c #65504B",
"v. c #66504B",
"b. c #66514B",
"n. c #67514C",
"m. c #69524D",
"M. c #69534D",
"N. c #6A534D",
"B. c #6C544E",
"V. c #6C544F",
"C. c #6C554F",
"Z. c #6D554F",
"A. c #6D5550",
"S. c #6E5550",
"D. c #6E5650",
"F. c #6F5650",
"G. c #6F5751",
"H. c #705751",
"J. c #715852",
"K. c #725952",
"L. c #735953",
"P. c #745A53",
"I. c #755A54",
"U. c #755B54",
"Y. c #765B54",
"T. c #765B55",
"R. c #765C55",
"E. c #775C55",
"W. c #785C55",
"Q. c #785D56",
"!. c #795D56",
"~. c #795E56",
"^. c #7A5E56",
"/. c #7A5E57",
"(. c #7B5E57",
"). c #7B5F57",
"_. c #7B5F58",
"`. c #7C5F58",
"'. c #7C6058",
/* pixels */
"% % % % % % o o % 6 j I Q A q - o o % % % % % o o o - q n ' | o.| | o.o.' J f 6 : q n Q I j 6 % o o % o o X . . ",
"% % % % % % % % - 8 c I ! A i : % % % % % % % % % % : u n ' o.o.| | o.o.' I j 6 6 u A ! I c 8 - % % % % - - ; ; ",
"% % % : 6 6 6 6 7 i n I ' J j q 6 6 6 6 6 6 6 6 6 6 q j F ' | o.| | | o.' I n q q j J ' I n u 6 6 6 6 q q i f j ",
"% % : 6 u j j j j n J ' ' I A j j j j j j j j j j j j n I ' | o.| | | | | ! F n c n I ' ' J n j f f j n I ' o.@.",
"% % 6 u n J I I I I ' ' ' ' Q I I J I I I I I I J I I I ' ' | | | | | | | ' ! I I I ' ' ' ' I I J J I | 6.i.z.v.",
"- : q j I ' | | ' ' | | | | ' ' ' ' ' ' ' ' ' ' ' ' ' ' | | | | | | | | | | | ' ' ' | | | | ' ' ' ' | 1.i.B.P.E.",
"q u j A ! | o.o.o.o.| | | | o.o.o.o.o.o.o.o.o.o.o.o.o.o.| | | | | | | | | | | o.o.o.| | | | o.o.| | o.7.d.H.).'.",
"n n F I ' | o.o.o.o.| | | | | o.o.o.o.o.| | o.o.o.o.o.| | | | | | | | | | | | o.o.| | | | | o.o.| | o.7.d.F.).`.",
"' ' ' ' ' | | | | | | | | | | | | | | | | | | | | | | | | | | | | | | | | | | | | | | | | | | | ' ' o.6.d.B.Y.).",
"o.o.o.| | | | | | | | | | | | | | | | | | | | | | | | | | | | | | | | | | | | | | | | | | | | | ' ' o.6.d.B.Y.).",
"#.#.o.o.| | | | | | | | | | | | | | | | | | | | | | | | | | | | | | | | | | | | | | | | | | | | ' ' o.6.d.B.Y.).",
"o.o.o.| | | | | | | | | | | | | | | | | | | | | | | | | | | | | | | | | | | | | | | | | | | | | ' ' o.6.d.B.Y.).",
"! ' ' ' ' | | | | | | | | | | | | | | | | | | | | | | | | | | | | | | | | | | | | | | | | | | | ' ' o.6.d.B.Y.).",
"n n F I ' | | | | | | | | | | | | | | | | | | | | | | | | | | | | | | | | | | | | | | | | | | | ' ' o.6.d.B.Y.).",
"q q f n I | o.| | | | | | | | | | | | | | | | | | | | | | | | | | | | | | | | | | | | | | | | | ' ' o.6.d.B.Y.).",
": : q c I ' o.o.| | | | | | | | | | | | | | | | | | | | | | | | | | | | | | | | | | | | | | | | ' ' o.6.d.B.Y.).",
"6 7 u n I ' o.o.| | | | | | | | | | | | | | | | | | | | | | | | | | | | | | | | | | | | | | | | ' ' o.6.d.F.Y.).",
"j j n J ! | | | | | | | | | | | | | | | | | | | | | | | | | | | | | | | | | | | | | | | | | | | ' ' o.6.d.F.E.).",
"I I I ! ' | | | | | | | | | | | | | | | | | | | | | | | | | | | | | | | | | | | | | | | | | | | ' ' o.6.d.F.E.).",
"Q ! ' ' ' | | | | | | | | | | | | | | | | | | | | | | | | | | | | | | | | | | | | | | | | | | | ' ' o.1.i.M.L.Y.",
"n A J I ' | | | | | | | | | | | | | | | | | | | | | | | | | | | | | | | | | | | | | | | | | | | ' ' | $.q.i.z.n.",
"q i j A Q ' | | | | | | | | | | | | | | | | | | | | | | | | | | | | | | | | | | | | | | | | | | ' ' | #.-.6.q.e.",
"- : q j I ' o.o.| | | | | | | | | | | | | | | | | | | | | | | | | | | | | | | | | | | | | | | | | | | o.#.$.$.$.",
"% % 6 j I ' o.o.| | | | | | | | | | | | | | | | | | | | | | | | | | | | | | | | | | | | | | | | | | | o.$.1.1.6.",
"o % 6 f J ' o.o.| | | | | | | | | | | | | | | | | | | | | | | | | | | | | | | | | | | | | | | | | ' | $.q.y.i.d.",
"% % 6 j I ' o.o.| | | | | | | | | | | | | | | | | | | | | | | | | | | | | | | | | | | | | | | | ' ' o.1.i.v.B.F.",
"% % 6 j I ' o.o.| | | | | | | | | | | | | | | | | | | | | | | | | | | | | | | | | | | | | | | | ' ' o.1.i.M.H.L.",
"o % 6 j I ' o.o.| | | | | | | | | | | | | | | | | | | | | | | | | | | | | | | | | | | | | | | | ' ' o.-.e.d.v.M.",
"o % 6 j J ' o.| | | | | | | | | | | | | | | | | | | | | | | | | | | | | | | | | | | | | | | | | | | | $.1.q.e.r.",
"% - 7 j I ' o.| | | | | | | | | | | | | | | | | | | | | | | | | | | | | | | | | | | | | | | | | | | | o.#.$.$.$.",
"6 8 u n I ' o.| | | | | | | | | | | | | | | | | | | | | | | | | | | | | | | | | | | | | | | | | | | | o.$.-.1.1.",
"j j n J ! | | | | | | | | | | | | | | | | | | | | | | | | | | | | | | | | | | | | | | | | | | | | ' | $.6.r.i.i.",
"I I I ! ' | | | | | | | | | | | | | | | | | | | | | | | | | | | | | | | | | | | | | | | | | | | ' ' | 1.y.z.B.F.",
"' ' ' ' | | | | | | | | | | | | | | | | | | | | | | | | | | | | | | | | | | | | | | | | | | | | ' ' o.6.d.B.Y.).",
"#.o.o.o.| | | | | | | | | | | | | | | | | | | | | | | | | | | | | | | | | | | | | | | | | | | | ' ' o.6.d.H.).'.",
"#.o.o.o.| | | | | | | | | | | | | | | | | | | | | | | | | | | | | | | | | | | | | | | | | | | | ' ' o.6.d.H.).'.",
"' ' ' | | | | | | | | | | | | | | | | | | | | | | | | | | | | | | | | | | | | | | | | | | | | | ' ' o.6.i.B.Y.).",
"I I I ! ' | | | | | | | | | | | | | | | | | | | | | | | | | | | | | | | | | | | | | | | | | | | ' ' o.1.y.v.B.F.",
"j j n J ! | | | | | | | | | | | | | | | | | | | | | | | | | | | | | | | | | | | | | | | | | | | ' ' | $.7.y.i.d.",
"6 8 u n I ' o.o.| | | | | | | | | | | | | | | | | | | | | | | | | | | | | | | | | | | | | | | | | | | o.$.1.1.6.",
"% - 7 j I ' o.o.| | | | | | | | | | | | | | | | | | | | | | | | | | | | | | | | | | | | | | | | | | | | | o.o.o.",
"o % 6 j J ' o.o.| | | | | | | | | | | | | | | | | | | | | | | | | | | | | | | | | | | | | | | | | | | | ' ' ' ' ",
"o % 6 j J ' o.o.| | | | | | | | | | | | | | | | | | | | | | | | | | | | | | | | | | | | | | | | | | | ' ' ' ' ' ",
"% % 6 j I ' o.| | | | | | | | | | | | | | | | | | | | | | | | | | | | | | | | | | | | | | | | | | | | | | o.o.o.",
"% % 6 j I ' o.o.| | | | | | | | | | | | | | | | | | | | | | | | | | | | | | | | | | | | | | | | | | | o.$.1.6.6.",
"% % 6 j I ' o.o.| | | | | | | | | | | | | | | | | | | | | | | | | | | | | | | | | | | | | | | | ' ' | $.7.y.i.d.",
"% % 6 j I ' o.o.| | | | | | | | | | | | | | | | | | | | | | | | | | | | | | | | | | | | | | | | ' ' o.1.y.v.B.F.",
"% % 6 j I ' o.o.| | | | | | | | | | | | | | | | | | | | | | | | | | | | | | | | | | | | | | | | ' ' o.6.i.B.Y.).",
". % 6 f J ' | | ' ' ' | | | | | | ' ' ' ' | | | ' ' ' ' ' ' ' ' ' ' ' ' ' ' ' | | | ' ' ' ' ' ' ' ' | 1.d.F.E.).",
". % : f J ' | ' ' ' ' | | | | | | ' ' ' ' | | | ' ' ' ' ' ' ' ' ' ' ' ' ' ' ' ' | | ' ' ' ' ' ' ' ' ' 1.d.F.E.).",
"% : q j I | o.o.o.o.| | | | | | | | o.o.o.| | | | o.o.o.o.o.o.o.o.o.o.o.o.o.| | | | o.o.o.o.o.o.| ' o.6.d.F.Y.).",
"f j n Q $.1.6.6.6.1.$.o.| ' | | o.$.1.1.-.$.o.o.$.1.6.6.6.6.6.6.6.6.6.6.6.1.$.o.o.#.-.1.6.6.6.6.1.1.6.y.z.F.Y.).",
"$.-.1.q.i.d.d.d.d.y.7.$.| ' ' | $.q.i.i.e.1.#.$.6.y.d.d.d.d.d.d.d.d.d.d.d.y.6.$.#.-.q.i.d.d.d.d.d.i.d.z.B.L.E.).",
"v.v.n.M.B.B.F.F.B.v.y.1.| ' ' o.1.i.n.M.d.q.$.-.r.z.B.F.F.F.B.F.F.F.F.F.B.v.r.-.$.7.i.M.F.F.F.B.B.B.F.F.L.Y.E.E.",
"Y.Y.Y.Y.Y.Y.E.E.Y.B.i.1.o.' ' o.6.d.B.H.v.q.$.1.i.B.Y.E.E.Y.Y.Y.Y.Y.E.E.Y.B.i.1.$.q.z.L.E.E.Y.Y.Y.Y.Y.Y.Y.E.E.E.",
"_._._.).).).).).).F.d.6.o.' ' o.6.d.H.L.M.r.$.1.i.F.).).).).).).).).).).).F.i.1.$.e.n.Y.).).).).).).).).).E.E.E."
};
