/* XPM */
static char *ahm8e_hijv1[] = {
/* columns rows colors chars-per-pixel */
"48 54 200 2 ",
"   c None",
".  c #131313",
"X  c #171718",
"o  c #161B1A",
"O  c #1D1A1B",
"+  c #201E1E",
"@  c #1C201F",
"#  c #21201F",
"$  c #2A1F22",
"%  c #1F2020",
"&  c #232323",
"*  c #2C2426",
"=  c #262C2C",
"-  c #2D2C2C",
";  c #242729",
":  c #36262B",
">  c #3A2D2F",
",  c #39272C",
"<  c #262E33",
"1  c #29343B",
"2  c #2C3638",
"3  c #343433",
"4  c #432A31",
"5  c #4C2A36",
"6  c #522C39",
"7  c #592E3D",
"8  c #562937",
"9  c #57393D",
"0  c #4A3538",
"q  c #2E3E45",
"w  c #583C40",
"e  c #622F40",
"r  c #6E3346",
"t  c #77344B",
"y  c #2E4B47",
"u  c #334449",
"i  c #344C4B",
"p  c #3B4B4D",
"a  c #38464D",
"s  c #324B59",
"d  c #395654",
"f  c #3B5B58",
"g  c #395C6E",
"h  c #375B6E",
"j  c #3B6177",
"k  c #484747",
"l  c #475855",
"z  c #5A5856",
"x  c #4A514E",
"c  c #664247",
"v  c #60555F",
"b  c #794B52",
"n  c #53615E",
"m  c #64625F",
"M  c #41696D",
"N  c #436774",
"B  c #477678",
"V  c #5F7279",
"C  c #506875",
"Z  c #666562",
"A  c #6A6663",
"S  c #6B6864",
"D  c #81344E",
"F  c #893853",
"G  c #913A57",
"H  c #943B59",
"J  c #9B3C5C",
"K  c #B13D64",
"L  c #AA3F63",
"P  c #884656",
"I  c #8C535B",
"U  c #9E5263",
"Y  c #B9456A",
"T  c #A35F69",
"R  c #A25565",
"E  c #AF4065",
"W  c #946178",
"Q  c #A4606A",
"!  c #AA626D",
"~  c #B56773",
"^  c #D54576",
"/  c #DB4B7B",
"(  c #DA567C",
")  c #C64871",
"_  c #E94C7F",
"`  c #C66E7B",
"'  c #86847F",
"]  c #43748C",
"[  c #45788E",
"{  c #4A7B8B",
"}  c #4A7E81",
"|  c #477C91",
" . c #497E93",
".. c #547F89",
"X. c #BC6A8B",
"o. c #E55B83",
"O. c #E85683",
"+. c #CC6D93",
"@. c #DE7788",
"#. c #EC688A",
"$. c #F2698D",
"%. c #EA798D",
"&. c #F37C93",
"*. c #4A8396",
"=. c #4E8D9C",
"-. c #4B8899",
";. c #55899B",
":. c #579994",
">. c #589C96",
",. c #50909E",
"<. c #549390",
"1. c #528E8D",
"2. c #65889A",
"3. c #679D9C",
"4. c #7D8489",
"5. c #5CA49E",
"6. c #5294A2",
"7. c #559AA5",
"8. c #5D9EA9",
"9. c #559BA8",
"0. c #698FA1",
"q. c #7899A9",
"w. c #6199AA",
"e. c #5CADA6",
"r. c #55A1AA",
"t. c #5AA5AC",
"y. c #5CA8AF",
"u. c #5EACB2",
"i. c #5EB4B7",
"p. c #63ACAA",
"a. c #63B3AC",
"s. c #6CB0AD",
"d. c #62B4B5",
"f. c #65B9B4",
"g. c #63B6B8",
"h. c #64BCBD",
"j. c #69BCBD",
"k. c #7BB2B5",
"l. c #75B7BC",
"z. c #66C1BE",
"x. c #6CBFC0",
"c. c #66C3C1",
"v. c #6AC4C2",
"b. c #6CCBC6",
"n. c #6ECEC8",
"m. c #74C8C5",
"M. c #6FD1CB",
"N. c #72D5CD",
"B. c #75DED5",
"V. c #7BDBD2",
"C. c #77E0D7",
"Z. c #77E2D8",
"A. c #938F89",
"S. c #95918B",
"D. c #979895",
"F. c #819695",
"G. c #81A79F",
"H. c #A2A19F",
"J. c #819DAB",
"K. c #99ACB5",
"L. c #8CB7BC",
"P. c #8CADAF",
"I. c #ACAAA4",
"U. c #BAB4AC",
"Y. c #AABFB7",
"T. c #ED8191",
"R. c #F68496",
"E. c #FD8A9B",
"W. c #F88697",
"Q. c #FF8FA0",
"!. c #C2BDB5",
"~. c #C6C5BD",
"^. c #A2BBC2",
"/. c #88C7C6",
"(. c #95D5D1",
"). c #9ADBD5",
"_. c #8DD7D1",
"`. c #AECFCF",
"'. c #A8D7D4",
"]. c #BADDD7",
"[. c #ABD3CC",
"{. c #A4E6DD",
"}. c #A9EBE1",
"|. c #C9CAC6",
" X c #D3CBC3",
".X c #C4CFD1",
"XX c #C5D1D3",
"oX c #CAD4D3",
"OX c #C0DED7",
"+X c #D5DBDB",
"@X c #D3D3CB",
"#X c #E0D8D0",
"$X c #D9E2DA",
"%X c #E5E3DC",
"&X c #E9E6DE",
"*X c #DBF6EC",
"=X c #C9EBE3",
"-X c #E7E9E4",
";X c #F3EEE5",
":X c #F9F4EC",
/* pixels */
"                                                                                                ",
"                                                                                                ",
"                                                                                                ",
"                                                                                                ",
"                                                                                                ",
"                                                                                                ",
"                                                                                                ",
"                                                                                                ",
"                                                                                                ",
"                                                                                                ",
"                                                                                                ",
"                                                                                                ",
"                                                                                                ",
"                                                                                                ",
"                                                                                                ",
"                                                                                                ",
"                                                                                                ",
"                    o o o o o o o o o o o o o                                                   ",
"                  : , > > > > > > > > > > > > >                                                 ",
"              & 5 t H U R T Q Q Q Q T T T Q T P 9 &                                             ",
"            : 4 e H Y ( #.&.&.&.&.R.R.R.W.E.T.~ b 0 :                                           ",
"        & 6 D H F t r P ) o.$.#.#.$.&.E.E.E.W.%.` ! I w *                                       ",
"      , 5 r J E H 7 : 6 F Y ) ^ / o.#.&.R.R.R.E.E.T.~ c * o                                     ",
"@ * 7 F J H t e 6       5 e F Y / O.O.o.#.&.R.E.Q.R.~ c * o                                     ",
"@ * 7 G L G 7 * @       o & 5 D K ) ^ / o.#.%.%.@.` I 9 * o                                     ",
"    4 6 6 6 4     % & @ O + * , 8 D K ^ _ O.( Y P 9 4 * + O O O O O O O O &                     ",
"      @ % @       & & = 2 i i y p v W X.+.+.X.W v p y i i x x z z z x k 3 ; %                   ",
"                  O = i B 5.p.e.p.s.k.L.L.L.L.k.s.p.e.e.a.P.Y.~. X X!.A.z * O                   ",
"                  O = f >.N.Z.C.B.M.v.z.h.h.h.h.h.h.h.h.x./.`.oX+X+X.XD.z = . .                 ",
"                  O = f :.n.C.B.N.h.r.=.*.*.*.*.*.*.*.*.-.;.;.2.0.0.2.C u & O O O O & & &       ",
"                  O = f :.n.B.B.M.d.=.] ] *.=.=.=.=.=.=.=.=.=.=.=.=.-...V A A Z v x 3 ; O       ",
"                  O = f :.n.B.B.M.d.=.[ =.y.z.v.v.v.v.v.v.v.v.v.c.c.v./.`.@X#X#X|.D.z - O       ",
"                  O = f :.n.B.B.M.d.=.| ,.g.N.N.v.h.v.n.N.n.v.h.c.n.N._.[.XX-X:X;XU.S - X       ",
"                  O = f :.n.B.B.M.d.=.| ,.g.n.h.7.=.7.h.n.h.7.=.7.h.n.j.8.0.K.+X&XU.S - X       ",
"                  O = f :.n.B.B.M.d.=.| ,.g.b.g.=.] =.g.b.g.=.[ =.g.b.i.-.[ q..X%XU.S - X       ",
"                  O = f :.n.B.B.M.d.=.| ,.g.b.g.,.| ,.g.b.g.,.| ,.g.b.i.=. .J.XX%XU.S - O       ",
"                  O = f :.n.B.B.M.d.=.| ,.g.b.g.=.[ =.g.b.g.=.[ ,.g.b.i.-.| q..X%XU.S - X       ",
"                  O = f :.n.B.B.M.d.=.| ,.g.b.g.6. .6.g.b.g.6. .6.g.b.g.6.*.J.oX%XU.S - X       ",
"                  O = f :.n.B.B.M.d.=.| ,.g.M.b.g.y.d.b.N.b.d.y.d.v.N././.^.XX-X;XU.S - X       ",
"                  O = f :.n.B.B.M.d.=.| =.d.b.N.n.b.n.n.M.n.n.b.b.n.N.(.OX%X;X:X%XI.m - O       ",
"                  O = f :.n.B.B.M.d.=.] [ =.9.t.t.t.t.t.r.t.t.t.r.r.9.3.F.S.S.A.' A k ; O       ",
"                  O = f :.n.B.B.M.g.6.| ] [ | | | | | | | | | |  . .{ N a 3 = * - = ; & &       ",
"                  O = f >.n.C.B.N.b.h.u.y.y.y.y.y.y.y.y.y.y.y.y.k.L.K.4.x & . .                 ",
"                  O = d <.z.N.N.n.n.b.b.b.b.b.b.b.b.b.b.b.b.b.m.).=X$XI.Z - O                   ",
"                  + = u B ,.9.7.7.7.7.7.7.7.7.7.7.7.7.7.7.7.7.8.l.(.'.G.n = O                   ",
"                  + ; q g [ *. .| | | | | | | | | | | | | | | *.8.m.m.3.l = O                   ",
"                  O = i } t.d.u.u.u.u.u.u.u.u.u.u.u.u.u.u.u.u.d./.'.].P.n - O                   ",
"                  O = f :.n.B.B.N.N.N.N.N.N.N.N.N.N.N.N.N.M.M.V.{.*X-XU.A - X                   ",
"                  O = f >.N.Z.C.B.B.B.B.B.B.B.B.B.B.B.B.B.B.B.V.}.*X;XU.S - X                   ",
"                  O = d 1.h.b.b.v.z.f.f.a.f.f.f.f.f.f.a.f.f.z.m.(.].oXH.z - O                   ",
"                  + = u B =.7.7.=.{ M f d d d d d d d d f M { ,.w.q.q.V p = O                   ",
"                  + & 1 s g j j g s 1 & + + + + + + + O & 1 s g j j h s 1 ; +                   ",
"                  & & = < 1 1 1 1 1                         1 1 1 1 1 < = & &                   ",
"                  & & & & # # # # #                         # # + + # & & & &                   "
};
