/* XPM */
static char *ab3ft_tldky[] = {
/* columns rows colors chars-per-pixel */
"48 54 201 2 ",
"   c None",
".  c #131313",
"X  c #171718",
"o  c #151B1A",
"O  c #1D1B1B",
"+  c #1B1616",
"@  c #0F1E19",
"#  c #201D1D",
"$  c #1A201E",
"%  c #21201F",
"&  c #251F21",
"*  c #1F272B",
"=  c #222222",
"-  c #2B2426",
";  c #242728",
":  c #262C2C",
">  c #2D2C2C",
",  c #292727",
"<  c #33262A",
"1  c #3A252C",
"2  c #3A2D2F",
"3  c #352B2D",
"4  c #3F2830",
"5  c #283033",
"6  c #29363D",
"7  c #2B383C",
"8  c #353738",
"9  c #4A2733",
"0  c #4B2934",
"q  c #452933",
"w  c #542D3A",
"e  c #5B2E3D",
"r  c #483A3B",
"t  c #52393C",
"y  c #2D3E43",
"u  c #5C3D42",
"i  c #612F40",
"p  c #6B3245",
"a  c #623743",
"s  c #7C344C",
"d  c #344449",
"f  c #354D4C",
"g  c #304140",
"h  c #36524F",
"j  c #324B58",
"k  c #365350",
"l  c #395452",
"z  c #3B5B58",
"x  c #3B5D6D",
"c  c #3C5F61",
"v  c #395D72",
"b  c #3B6276",
"n  c #52504E",
"m  c #4D4F51",
"M  c #435A57",
"N  c #585957",
"B  c #4A4846",
"V  c #654247",
"C  c #615E5A",
"Z  c #794B52",
"A  c #4D615D",
"S  c #5A625E",
"D  c #62605D",
"F  c #456976",
"G  c #6B6864",
"H  c #676664",
"J  c #716C68",
"K  c #6F706C",
"L  c #727A79",
"P  c #8B3954",
"I  c #833550",
"U  c #9A3C5B",
"Y  c #943B59",
"T  c #81364F",
"R  c #A73B5F",
"E  c #B53F67",
"W  c #A73C60",
"Q  c #854B57",
"!  c #8B4959",
"~  c #9C5B65",
"^  c #9C4760",
"/  c #B54168",
"(  c #A35F69",
")  c #A05465",
"_  c #BA526F",
"`  c #A4606A",
"'  c #AA626D",
"]  c #B56772",
"[  c #C3436F",
"{  c #C74571",
"}  c #DB4B7B",
"|  c #D44676",
" . c #CA5476",
".. c #C76F7D",
"X. c #4C807C",
"o. c #4F6F82",
"O. c #43758C",
"+. c #45788E",
"@. c #48798F",
"#. c #467984",
"$. c #477C91",
"%. c #497F93",
"&. c #507A8E",
"*. c #E45B83",
"=. c #E95684",
"-. c #DE7889",
";. c #EC6B8B",
":. c #EA6588",
">. c #F2698D",
",. c #E77C8D",
"<. c #F37C93",
"1. c #F07790",
"2. c #498195",
"3. c #4C8698",
"4. c #4F8D9C",
"5. c #478C9B",
"6. c #538297",
"7. c #5C8497",
"8. c #4D909F",
"9. c #579994",
"0. c #51919E",
"q. c #579995",
"w. c #52888A",
"e. c #638B9E",
"r. c #648699",
"t. c #6F9194",
"y. c #72A39C",
"u. c #4B91A0",
"i. c #5295A2",
"p. c #559AA5",
"a. c #579EA8",
"s. c #599AA6",
"d. c #7C9BAA",
"f. c #5FABA6",
"g. c #5EA7AE",
"h. c #5DACB2",
"j. c #5EB4B7",
"k. c #5FB2AB",
"l. c #62B2AC",
"z. c #68B4AD",
"x. c #61B2B5",
"c. c #62B6B8",
"v. c #65BBBC",
"b. c #6ABCBE",
"n. c #79B4BA",
"m. c #62ADB2",
"M. c #68C1BE",
"N. c #6AC7C4",
"B. c #6CCBC6",
"V. c #6ECEC9",
"C. c #67C7C4",
"Z. c #77C9C6",
"A. c #6FD0CA",
"S. c #6FD8CF",
"D. c #72D3CC",
"F. c #70D8CF",
"G. c #75DCD4",
"H. c #79D9D0",
"J. c #76E0D7",
"K. c #77E2D9",
"L. c #898784",
"P. c #979996",
"I. c #97938D",
"U. c #819DAC",
"Y. c #8EACAE",
"T. c #A8A8A4",
"R. c #B9B4AC",
"E. c #A5B3B8",
"W. c #ED8191",
"Q. c #F68496",
"!. c #FE8A9B",
"~. c #F88697",
"^. c #FF8FA0",
"/. c #AEC4BC",
"(. c #C9C3BB",
"). c #9BBCC2",
"_. c #87C6C7",
"`. c #92C8C7",
"'. c #96D4CF",
"]. c #99DDD6",
"[. c #87D2CE",
"{. c #A7C9CB",
"}. c #BDCFD0",
"|. c #BCD8D1",
" X c #B2E2DC",
".X c #C6CAC6",
"XX c #DAD2CA",
"oX c #C4CED1",
"OX c #CCD5D5",
"+X c #C5D1D2",
"@X c #D3D8D6",
"#X c #D3CFC6",
"$X c #E5DED5",
"%X c #C1E2DB",
"&X c #DAE2DD",
"*X c #E5E3DC",
"=X c #E8E5DD",
"-X c #C8EBE3",
";X c #EFEFEA",
":X c #F3EDE5",
">X c #F7F5EF",
/* pixels */
"                                                                                                ",
"                                                                                                ",
"                                                                                                ",
"                                                                                                ",
"                                                                                                ",
"                                                                                                ",
"                                                                                                ",
"                                                                                                ",
"                                                                                                ",
"                                                                                                ",
"                                                                                                ",
"                                                                                                ",
"                                                                                                ",
"                                                                                                ",
"                                                                                                ",
"                                                                                                ",
"      < < <                                                                                     ",
"$ - w s P s w = @ o o o o o o o o o o o o o o                                                   ",
"$ - e Y / U p 4 < < 1 2 2 2 2 2 2 2 2 2 2 2 2 2                                                 ",
"    q e p s P Y U U U ^ ) ( ` ` ` ` ( ( ` ` ~ Q t =                                             ",
"      $ - e Y / [ [ {  .:.1.<.<.<.Q.Q.Q.~.!.W.] Z r 3                                           ",
"          q e i i i p !  .:.>.:.:.;.<.!.!.!.~.,...' Q u ,                                       ",
"            = = $ $ - e P / { | } *.;.1.Q.Q.Q.!.!.W.] V , o                                     ",
"                      1 0 e I / } =.=.*.;.1.Q.!.^.Q.] V , o                                     ",
"                        o - w P / { | } *.;.1.,.-...~ u , o                                     ",
"                              q e T E } =.=.*._ ! a t                                           ",
"                              o = 0 s W / E R s 9 & o                                           ",
"                  = = = # # O O # - 1 9 0 0 9 1 - # O O # O O O o o O O = = =                   ",
"                  = = 5 g f l k k k h h h h h k l l l k l M N N C C N B 8 , O                   ",
"                  O : f X.f.l.l.l.l.l.l.l.l.l.l.l.l.l.k.z.Y./..XXXXX(.I.N > X                   ",
"                  O : z q.D.K.K.G.D.N.b.v.v.v.v.v.v.v.v.b._.{.+X@X@X.XP.N : . .                 ",
"                  O : z q.V.G.G.D.b.a.3.2.2.2.2.2.2.2.2.2.6.7.r.e.e.7.F d ; O O = = = = =       ",
"                  O : z q.V.G.G.A.x.4.O.O.2.4.0.i.i.i.0.0.8.8.8.u.8.4.w.L K J J H n 8 , O       ",
"                  O : z q.V.G.G.A.x.4.$.4.h.N.B.B.N.N.N.N.N.N.N.N.C.Z.`.|.@X$X$X#XP.N > X       ",
"                  O : z q.V.G.G.A.x.4.$.0.c.D.A.M.c.b.V.F.V.b.c.b.V.F.[.{.}.&X>X:XR.G > o       ",
"                  O : z 9.V.G.G.A.x.4.$.0.c.B.c.p.3.p.c.V.c.p.3.p.c.V.v.s.e.Y.OX=XR.G > o       ",
"                  O : z 9.V.G.G.A.x.4.$.0.c.B.c.4.+.4.c.B.c.4.+.4.c.B.j.5.@.d.oX*XR.G > X       ",
"                  O : z 9.V.G.G.A.x.4.$.0.c.B.c.0.$.0.c.B.c.0.$.0.c.B.j.4.%.U.+X*XR.G > X       ",
"                  O : z q.V.G.G.A.x.4.$.0.c.B.c.4.+.4.c.B.c.4.+.4.c.B.j.5.@.d.oX*XR.G > X       ",
"                  O : z q.V.G.G.A.x.4.$.0.c.B.c.i.2.i.c.B.c.i.%.i.c.V.c.i.6.U.OX*XR.G > X       ",
"                  O : z q.V.G.G.A.x.4.$.0.c.A.B.c.h.c.B.F.B.c.h.c.N.F.[.`.{.OX;X:XR.G > o       ",
"                  O : z q.V.G.G.A.x.4.$.4.h.B.D.V.B.V.V.V.V.V.B.V.V.D.'.|.*X:X:X$XT.D > X       ",
"                  O : z q.V.G.G.A.x.4.O.+.4.p.a.a.a.a.p.p.p.a.a.a.p.p.e.t.L.L.L.L D r , O       ",
"                  O : z 9.V.G.G.A.c.i.%.+.+.$.$.$.$.$.$.$.$.$.$.%.6.&.F d : - - , , , = =       ",
"                  O : z q.V.J.J.F.V.b.x.h.h.h.h.h.h.h.h.h.h.h.m.n.).E.L.m , . .                 ",
"                  O : l 9.M.A.V.B.B.B.B.B.B.B.B.B.B.B.B.B.N.C.Z.].-X&XT.H > X                   ",
"                  # : d F 4.p.i.i.i.i.i.i.i.i.i.i.i.i.i.i.i.i.s.n.'.'.y.A : X                   ",
"                  # ; y x +.2.2.%.%.%.%.%.%.%.%.%.%.%.%.%.$.$.3.g.Z.Z.y.M : O                   ",
"                  + : f w.h.c.c.x.x.x.x.x.x.x.x.x.x.x.x.x.h.h.c._. X%XY.S > +                   ",
"                  ; 7 c 9.b.A.F.F.G.G.G.F.G.G.G.G.G.G.G.F.F.S.H.].%XOXT.H 7 *                   ",
"              ; 6 j x F %.i.h.N.G.J.G.G.G.G.G.G.G.G.G.G.G.G.G.G.Z.n.d.r.o.x j 6 ;               ",
"            # = 6 j v b v b #.q.f.l.l.l.l.l.l.l.l.l.l.l.l.l.l.f.q.#.b v b v j 6 = #             ",
"            = = : 5 6 6 6 6 y d f h h h h h h h h h h h h h h f d y 6 6 6 6 5 : = =             ",
"            = = = = % % % % # # # # # # # O # # # # # # # # # # # # % % % % = = = =             "
};
