/* XPM */
static char *ajjth_k9t6i[] = {
/* columns rows colors chars-per-pixel */
"48 54 197 2 ",
"   c None",
".  c #131313",
"X  c #171718",
"o  c #151C1A",
"O  c #1D1A1B",
"+  c #201E1D",
"@  c #1A201E",
"#  c #17201D",
"$  c #21201F",
"%  c #2D1F23",
"&  c #1F2020",
"*  c #232223",
"=  c #2D2326",
"-  c #242728",
";  c #262C2C",
":  c #2D2C2C",
">  c #33262A",
",  c #352B2C",
"<  c #3B272E",
"1  c #262E32",
"2  c #29343B",
"3  c #2A3539",
"4  c #343433",
"5  c #40242D",
"6  c #4D2A36",
"7  c #4E2733",
"8  c #5C2E3E",
"9  c #552A38",
"0  c #453335",
"q  c #543A3E",
"w  c #2E3E45",
"e  c #6B3245",
"r  c #633542",
"t  c #75344A",
"y  c #652F42",
"u  c #334449",
"i  c #344D4A",
"p  c #38474B",
"a  c #324B59",
"s  c #395654",
"d  c #3B5B58",
"f  c #395C6E",
"g  c #375B6F",
"h  c #3B6177",
"j  c #464948",
"k  c #5A5856",
"l  c #4B5653",
"z  c #674248",
"x  c #794B52",
"c  c #4F615E",
"v  c #57625F",
"b  c #64625F",
"n  c #416A6E",
"m  c #436774",
"M  c #477678",
"N  c #5E7278",
"B  c #506875",
"V  c #666562",
"C  c #6A6663",
"Z  c #6B6864",
"A  c #83354F",
"S  c #8A3854",
"D  c #913957",
"F  c #933B58",
"G  c #AD3E63",
"H  c #884C58",
"J  c #95445C",
"K  c #9B5C65",
"L  c #975561",
"P  c #B64168",
"I  c #BD426B",
"U  c #B05A6D",
"Y  c #AF646F",
"T  c #B56773",
"R  c #C3446F",
"E  c #CB4673",
"W  c #C74771",
"Q  c #DC4B7B",
"!  c #D64778",
"~  c #CC5678",
"^  c #C16D79",
"/  c #86847F",
"(  c #43748C",
")  c #45788E",
"_  c #4A7C8B",
"`  c #4A7E81",
"'  c #477C91",
"]  c #497E93",
"[  c #547F89",
"{  c #E45B83",
"}  c #EA5584",
"|  c #CD7280",
" . c #ED6D8C",
".. c #E86588",
"X. c #F3658C",
"o. c #E27B8B",
"O. c #F2708F",
"+. c #EE7C90",
"@. c #F17C92",
"#. c #F87E95",
"$. c #4B8396",
"%. c #4B8598",
"&. c #4E8D9C",
"*. c #478B9B",
"=. c #55899B",
"-. c #579994",
";. c #589C96",
":. c #50909E",
">. c #549390",
",. c #528E8D",
"<. c #65889A",
"1. c #679D9C",
"2. c #7D8489",
"3. c #5BA39D",
"4. c #5294A2",
"5. c #559AA5",
"6. c #5D9EA9",
"7. c #559BA8",
"8. c #698FA1",
"9. c #7899A9",
"0. c #6199AA",
"q. c #5EADA6",
"w. c #5AA4AC",
"e. c #5CA8AF",
"r. c #54A1AB",
"t. c #5EACB2",
"y. c #5EB4B7",
"u. c #62AEA7",
"i. c #60ADAB",
"p. c #62B4B4",
"a. c #65BAB4",
"s. c #63B6B8",
"d. c #65BDBD",
"f. c #69BCBD",
"g. c #76B4B9",
"h. c #64B6AF",
"j. c #67C1BD",
"k. c #6CBFC0",
"l. c #66C3C1",
"z. c #6AC4C2",
"x. c #6DCBC6",
"c. c #6ECEC8",
"v. c #74C8C5",
"b. c #6FD1CB",
"n. c #72D5CD",
"m. c #75DED5",
"M. c #7BDBD2",
"N. c #77E0D7",
"B. c #77E2D8",
"V. c #938F89",
"C. c #95918B",
"Z. c #979895",
"A. c #819695",
"S. c #81A79F",
"D. c #A2A19E",
"F. c #819DAB",
"G. c #99ACB5",
"H. c #8BADAF",
"J. c #ACAAA4",
"K. c #BAB4AC",
"L. c #A9BEB6",
"P. c #EA8090",
"I. c #F48395",
"U. c #F88697",
"Y. c #FE8B9C",
"T. c #F98798",
"R. c #FF8FA1",
"E. c #C2BDB5",
"W. c #C6C5BC",
"Q. c #A2BBC2",
"!. c #88C7C6",
"~. c #95D5D1",
"^. c #9ADBD5",
"/. c #8DD7D1",
"(. c #AECFCF",
"). c #A8D7D4",
"_. c #BADDD7",
"`. c #ABD3CC",
"'. c #A4E6DD",
"]. c #A9EBE1",
"[. c #C9CAC6",
"{. c #D4CBC3",
"}. c #C4CFD1",
"|. c #C5D1D3",
" X c #CAD4D3",
".X c #C0DED7",
"XX c #D5DBDB",
"oX c #D3D3CB",
"OX c #E0D8D0",
"+X c #D9E2DA",
"@X c #E5E3DC",
"#X c #E9E6DE",
"$X c #DBF6EC",
"%X c #C9EBE3",
"&X c #E7E9E4",
"*X c #F3EEE5",
"=X c #F9F4EC",
/* pixels */
"                                                                                                ",
"                                                                                                ",
"                                                                                                ",
"                                                                                                ",
"                                                                                                ",
"                                                                                                ",
"                                                                                                ",
"                                                                                                ",
"                                                                                                ",
"                                                                                                ",
"                                                                                                ",
"                                                                                                ",
"                                                                                                ",
"                                                                                                ",
"                                                                                                ",
"        o o o o o # o o o o o o o o o o o o o                                                   ",
"      > > > > > > > > > , , , , , , , , , , , ,                                                 ",
"# = 9 t D F F D D D F J L K K K K K K K K K L x q *                                             ",
"# = 8 F I E W R R R W ~ ..+.I.@.@.I.I.I.U.U.+.T x 0 >                                           ",
"    6 8 e e e e e y t J ~ ..X.X...O.#.Y.Y.Y.U.o.^ K H q =                                       ",
"      * * * * * & & = 8 F I E ! Q {  .@.I.U.U.Y.Y.P.Y z = o                                     ",
"                      < 6 y S P Q } { .. .@.U.Y.R.U.T z = o                                     ",
"                        # = 8 D P E ! Q {  .@.+.o.| K z = o                                     ",
"                            < 6 y A P Q } } { U H z q 0                                         ",
"                              o * 6 A G I I G A 6 * o                                           ",
"                    * * + O O o O = 5 7 9 9 7 5 % O O O O O O O O O O O O *                     ",
"                  * * ; 3 u i i i i i i i i i i i i i i i j l k k k l j 4 - &                   ",
"                  O ; i M 3.u.u.q.q.q.q.q.q.q.q.u.u.q.q.u.H.L.W.{.{.E.V.k = O                   ",
"                  O ; d ;.n.B.N.m.n.x.l.d.d.d.d.d.d.d.d.k.!.(. XXXXX}.Z.k ; . .                 ",
"                  O ; d -.c.N.m.n.d.r.&.$.%.%.%.%.%.%.%.%.=.=.<.8.8.<.B u * O O O O * * *       ",
"                  O ; d -.c.m.m.b.p.&.( ( $.&.&.&.&.&.&.&.&.&.&.&.&.%.[ N C C V b j 4 - O       ",
"                  O ; d -.c.m.m.b.p.&.' %.e.j.z.z.z.z.z.z.z.z.z.l.l.z.!.(.oXOXOX[.Z.k : O       ",
"                  O ; d -.c.m.m.b.p.&.' &.s.n.n.l.d.l.c.n.c.l.d.l.c.n./.`.|.&X=X*XK.Z , o       ",
"                  O ; d -.c.m.m.b.p.&.' :.s.c.d.5.&.5.d.c.d.5.&.5.d.c.f.6.8.G.XX#XK.Z : o       ",
"                  O ; d -.c.m.m.b.p.&.' :.s.x.s.&.( &.s.x.s.&.) &.s.x.y.*.) 9.}.@XK.Z : o       ",
"                  O ; d -.c.m.m.b.p.&.' :.s.x.s.&.' &.s.x.s.:.' &.s.x.s.&.] F.|.@XK.Z : o       ",
"                  O ; d -.c.m.m.b.p.&.' :.s.x.s.&.) &.s.x.s.&.) &.s.x.y.&.' 9.}.@XK.Z : X       ",
"                  O ; d -.c.m.m.b.p.&.' :.s.x.s.4.' 4.s.x.s.4.' 4.s.x.s.:.$.F.|.@XK.Z : X       ",
"                  O ; d -.c.m.m.b.p.&.' :.s.b.x.s.e.s.x.n.x.p.e.p.z.n.!.!.Q.|.&X*XK.Z : X       ",
"                  O ; d -.c.m.m.b.p.&.' &.p.x.n.c.x.c.c.b.c.c.x.x.c.n.~..X@X*X=X@XJ.b : O       ",
"                  O ; d -.c.m.m.b.p.&.( ) &.7.r.r.r.r.r.r.r.r.r.r.r.7.1.A.C.C.V./ C j - O       ",
"                  O ; d -.c.m.m.b.s.4.' ( ) ' ' ' ' ' ' ' ' ' ' ] $._ m p 4 ; = : ; - * *       ",
"                  O ; d ;.c.N.m.n.x.d.t.e.e.e.e.e.e.e.e.e.e.e.e.g.G.G.2.j * . .                 ",
"                  O ; s >.j.n.n.c.c.x.x.x.x.x.x.x.x.x.x.x.x.x.v.^.%X+XJ.V : O                   ",
"                  + ; u M :.7.5.5.5.5.5.5.5.5.5.5.5.5.5.5.5.5.6.g.~.).S.c ; O                   ",
"                  + - w f ) $.] ' ' ' ' ' ' ' ' ' ' ' ' ' ' ' $.6.v.v.1.l ; O                   ",
"                  O ; i ` w.p.t.t.t.t.t.t.t.t.t.t.t.t.t.t.t.t.p.!.)._.H.v : O                   ",
"                  O ; d -.c.m.m.n.n.n.n.n.n.n.n.n.n.n.n.n.b.b.M.'.$X&XK.C : o                   ",
"                  O ; d ;.n.B.N.m.m.m.m.m.m.m.m.m.m.m.m.m.m.m.M.].$X*XK.Z : X                   ",
"                  O ; s ,.d.x.x.z.j.a.a.h.a.a.a.a.a.a.a.a.a.j.v.~._. XD.k : O                   ",
"                  + ; u M &.5.5.&._ n d s s s s s s s s d n _ &.0.9.9.N p ; O                   ",
"                  + * 2 a f h h f a 2 * + + + + + + + + * 2 a f h h g a w - +                   ",
"                  * * ; 1 2 2 2 2 2                   + * - 1 2 2 2 2 2 1                       ",
"                  * * * * $ $ $ $ $                   * * * * $ + + $ $                         "
};
