/* XPM */
static char *aadkf_aqs1e[] = {
/* columns rows colors chars-per-pixel */
"48 54 194 2 ",
"   c None",
".  c #141414",
"X  c #171718",
"o  c #151B1A",
"O  c #1C1A1A",
"+  c #1D1717",
"@  c #211E1D",
"#  c #19201E",
"$  c #21201F",
"%  c #2C1F22",
"&  c #222223",
"*  c #2C2427",
"=  c #242728",
"-  c #262C2C",
";  c #2D2D2C",
":  c #32262A",
">  c #342B2C",
",  c #37262B",
"<  c #30302F",
"1  c #262D31",
"2  c #2A353B",
"3  c #283236",
"4  c #333434",
"5  c #472A34",
"6  c #5C2E3D",
"7  c #522C39",
"8  c #443637",
"9  c #553A3E",
"0  c #40232C",
"q  c #2B3A42",
"w  c #653042",
"e  c #693744",
"r  c #78354B",
"t  c #2C4542",
"y  c #384747",
"u  c #334A4B",
"i  c #364648",
"p  c #324D5B",
"a  c #3C5B59",
"s  c #37535A",
"d  c #3E615F",
"f  c #395B6B",
"g  c #375769",
"h  c #395F74",
"j  c #3E6260",
"k  c #3A6074",
"l  c #454A4C",
"z  c #4A4947",
"x  c #514F4C",
"c  c #595855",
"v  c #415E5A",
"b  c #664247",
"n  c #794B52",
"m  c #60575B",
"M  c #57615E",
"N  c #436B73",
"B  c #467578",
"V  c #566B72",
"C  c #6B6864",
"Z  c #696663",
"A  c #63757F",
"S  c #8B3854",
"D  c #943A58",
"F  c #953B59",
"G  c #85314D",
"H  c #B43B63",
"J  c #884A56",
"K  c #95445C",
"L  c #9B5C65",
"P  c #975661",
"I  c #965C74",
"U  c #B64068",
"Y  c #B9426A",
"T  c #BE506D",
"R  c #A35F69",
"E  c #AF6470",
"W  c #B66873",
"Q  c #C94572",
"!  c #D94879",
"~  c #CC5678",
"^  c #E4517E",
"/  c #C66E7B",
"(  c #3E6A81",
")  c #406F88",
"_  c #43758C",
"`  c #45798F",
"'  c #4A798E",
"]  c #477C91",
"[  c #4A7D93",
"{  c #517D8C",
"}  c #BF6588",
"|  c #E75682",
" . c #D06890",
".. c #EA6889",
"X. c #F3658C",
"o. c #E27B8B",
"O. c #F2708F",
"+. c #EE7B90",
"@. c #F17C92",
"#. c #F87E95",
"$. c #4B838B",
"%. c #52908E",
"&. c #4B8698",
"*. c #4D8C9C",
"=. c #498697",
"-. c #508F9E",
";. c #588B9C",
":. c #4E909F",
">. c #579994",
",. c #589C96",
"<. c #51909F",
"1. c #579A95",
"2. c #678C9D",
"3. c #6E8F8F",
"4. c #57A79F",
"5. c #569CA7",
"6. c #579EA9",
"7. c #5597A4",
"8. c #6A95A5",
"9. c #7897A7",
"0. c #5AA5A2",
"q. c #5CA8A2",
"w. c #5AA4AC",
"e. c #5CA8AF",
"r. c #56A4AC",
"t. c #5DABB2",
"y. c #5EB3B6",
"u. c #5FB5B8",
"i. c #68A6A6",
"p. c #7AABB1",
"a. c #61B2B6",
"s. c #67BDB6",
"d. c #63B6B8",
"f. c #66BDBD",
"g. c #6BBEBE",
"h. c #6DB3B8",
"j. c #64C1BE",
"k. c #68C0BA",
"l. c #66C1C0",
"z. c #6AC4C1",
"x. c #6DCBC6",
"c. c #6ECEC9",
"v. c #78C8C5",
"b. c #6FD1CA",
"n. c #71D4CD",
"m. c #78D7CF",
"M. c #75DED5",
"N. c #7DDED4",
"B. c #77E1D7",
"V. c #77E2D8",
"C. c #8E8B86",
"Z. c #9B9A96",
"A. c #8E9794",
"S. c #A19993",
"D. c #829EAC",
"F. c #89A7A1",
"G. c #98ABB5",
"H. c #8DB2B9",
"J. c #95B4BC",
"K. c #80B0A9",
"L. c #ABA8A3",
"P. c #BAB4AD",
"I. c #B6B0A9",
"U. c #B1BBB3",
"Y. c #EA8090",
"T. c #F48395",
"R. c #F88697",
"E. c #FE8B9C",
"W. c #F98798",
"Q. c #FF8FA1",
"!. c #CAC3BB",
"~. c #88BBC0",
"^. c #8AC7C5",
"/. c #98D8D3",
"(. c #8FD8D2",
"). c #A8D8D3",
"_. c #B1D6D2",
"`. c #B1CAC4",
"'. c #A3E4DC",
"]. c #AAECE1",
"[. c #DAD2C9",
"{. c #C3CED0",
"}. c #C7D6D5",
"|. c #D2D9D6",
" X c #CDCFCA",
".X c #DBE1DC",
"XX c #C3E2DD",
"oX c #E5E4DC",
"OX c #EAE5DD",
"+X c #DEE2E0",
"@X c #CFEEE6",
"#X c #E7E9E3",
"$X c #F3EEE5",
"%X c #F2F7EE",
/* pixels */
"                                                                                                ",
"                                                                                                ",
"                                                                                                ",
"                                                                                                ",
"                                                                                                ",
"                                                                                                ",
"                                                                                                ",
"                                                                                                ",
"                                                                                                ",
"                                                                                                ",
"                                                                                                ",
"                                                                                                ",
"                                                                                                ",
"                                                                                                ",
"                                                                                                ",
"              o o o o o o o o o o o o o o o o                                                   ",
"            : : : : : : > > > > > > > > > > > >                                                 ",
"        & 7 r S D D D K P L L L L L L L L L P n 9 &                                             ",
"      : 0 w F Y Q Q Q ~ ..+.T.@.@.T.T.T.R.W.Y.W n 8 :                                           ",
"# * 7 r D S r e w w r K ~ ..X.X...O.#.E.E.E.R.o./ R J 9 *                                       ",
"# * 6 F U F 6 * # # * 6 D Y Q ! ! | ..@.T.R.R.E.E.Y.E b * o                                     ",
"    5 6 w 6 5         , 7 w S U ! | | ....@.R.E.Q.R.W b * o                                     ",
"      & & &             o * 7 S U Q ! ! | ..+.+.o./ P 9 * o                                     ",
"                    & O O O % 0 6 G H ! ^ | ^ T J e 5 : @ O X X X X X O O &                     ",
"                  & & - 2 t t t y m I }  . .} I m y t t i y l x x x z 4 > = &                   ",
"                  O - u B ,.q.q.q.i.p.H.J.J.H.p.i.q.4.0.i.K.U.P.!.!.P.C.x - X                   ",
"                  O - a ,.n.V.M.M.b.x.l.j.j.j.j.l.l.l.l.z.^._.|..X+X XZ.c - .                   ",
"                  O - a ,.x.B.M.n.f.r.*.&.&.&.&.&.&.&.&.&.;.2.8.9.9.2.V i & X X O O & & &       ",
"                  O - a >.x.M.M.b.a.-._ _ ] &.&.&.&.&.&.&.&.&.&.&.&.=.{ V M m c c z 4 = O       ",
"                  O - a >.x.M.M.b.a.*.` &.w.f.z.z.l.l.l.j.l.l.l.l.j.z.^.`. X[.[.!.A.c ; X       ",
"                  O - a >.x.M.M.b.a.*.] <.d.n.n.z.f.z.b.n.b.z.f.l.c.m.(._.}.#X%X$XP.C ; X       ",
"                  O - a >.x.M.M.b.a.*.] <.d.c.f.5.*.5.f.c.f.5.*.5.f.c.g.i.8.G.|.OXP.C ; o       ",
"                  O - a >.x.M.M.b.a.*.] <.d.x.d.*.` *.d.x.d.*.` *.d.x.y.*.' 9.{.oXP.C ; X       ",
"                  O - a >.x.M.M.b.a.*.] <.d.x.d.<.] <.d.x.d.<.] <.d.x.u.*.[ D.}.oXP.C ; o       ",
"                  O - a >.x.M.M.b.a.*.] <.d.x.d.*.` *.d.x.d.*.` -.d.x.y.*.] 9.{.oXP.C ; X       ",
"                  O - a >.x.M.M.b.a.*.] <.d.x.d.<.] <.d.x.d.<.] <.d.x.d.:.[ D.}.oXP.C ; X       ",
"                  O - a >.x.M.M.b.a.*.] <.d.b.x.a.w.a.z.n.z.a.w.y.z.m.v.~.J.{.#X$XP.C ; X       ",
"                  O - a >.x.M.M.b.a.*.] *.a.c.n.c.x.c.b.n.b.c.x.x.c.m./.}.oX$X%XOXL.Z ; X       ",
"                  O - a >.x.M.M.b.a.*.` ] -.r.w.e.w.w.w.w.w.w.w.w.r.r.i.A.Z.S.Z.C.C z - O       ",
"                  O - a >.x.M.M.b.d.7.] _ ` ] ] ] ] ] ] ] ] ] ] [ [ ' N u 4 > > < ; = & &       ",
"                  O - a ,.x.B.M.n.x.d.t.w.r.r.r.r.r.r.r.r.r.r.w.p.H.G.3.l & . . .   O           ",
"                  O - a >.z.n.n.c.c.x.x.x.x.x.x.x.x.x.x.x.x.x.c./.@X.XL.Z ; X                   ",
"                  @ - u B <.5.5.5.5.5.5.6.6.6.6.6.6.6.6.6.5.5.w.g./.).F.M ; X                   ",
"                  @ = q f _ [ [ ] ] ] ] ] ] ] ] ] ] ] ] ] ` ` =.6.v.v.,.v ; O                   ",
"                  O - u B w.t.t.e.e.e.e.e.e.e.e.e.e.e.e.e.w.w.t.^.)._.F.M ; X                   ",
"                  O - a >.x.M.M.n.n.n.n.n.n.n.n.n.n.n.n.n.b.b.m.'.@X#XI.C ; o                   ",
"                  O - a ,.n.V.B.M.M.M.M.B.B.M.M.M.M.M.M.M.M.M.N.].%X$XP.C > X                   ",
"                  O - s %.f.c.c.x.z.k.s.s.s.s.s.s.s.s.s.s.k.l.x./.XX|.L.m ; X                   ",
"                  @ - i N *.5.5.7.$.N d a a a a a a a a j N $.<.8.p.9.A l - O                   ",
"                  @ = q g ( ) ( h p q & @ @ & & & & @ @ & q g ( ) ( h p q = @                   ",
"                  @ = q g ( h p q 3 =               + O & q g ( h p q 3 1                       ",
"                  @ & 2 p f p q & @                   @ & 2 p f p q & O                         ",
"                  & & - 3 2 2 1                       & & - 3 2 2 1                             ",
"                  & & & & $ $                         & & & & $ $                               "
};
