/* XPM */
static char *aoyet_5a0l5[] = {
/* columns rows colors chars-per-pixel */
"56 56 135 2 ",
"   c #1D1F1F",
".  c #1E1F20",
"X  c #1F2020",
"o  c #242323",
"O  c #292726",
"+  c #2B2827",
"@  c #2D2929",
"#  c #332D2D",
"$  c #37302F",
"%  c #38312F",
"&  c #373030",
"*  c #3C3332",
"=  c #413635",
"-  c #443937",
";  c #463A39",
":  c #4B3D3C",
">  c #4A3D3C",
",  c #4C3D3C",
"<  c #4C3E3C",
"1  c #4D3F3C",
"2  c #4C3E3D",
"3  c #4D3F3D",
"4  c #4E3F3D",
"5  c #4E3F3E",
"6  c #493C3A",
"7  c #4D403C",
"8  c #4E403C",
"9  c #4E403D",
"0  c #4F413D",
"q  c #4F403E",
"w  c #4F403E",
"e  c #50413E",
"r  c #51413F",
"t  c #51423E",
"y  c #51423F",
"u  c #52423F",
"i  c #52433F",
"p  c #53443F",
"a  c #51423F",
"s  c #524240",
"d  c #534240",
"f  c #534340",
"g  c #534341",
"h  c #544341",
"j  c #544440",
"k  c #554540",
"l  c #544441",
"z  c #554441",
"x  c #554541",
"c  c #564541",
"v  c #554442",
"b  c #564542",
"n  c #574642",
"m  c #544341",
"M  c #584643",
"N  c #584743",
"B  c #594743",
"V  c #594743",
"C  c #594843",
"Z  c #5A4843",
"A  c #5A4844",
"S  c #5A4944",
"D  c #5B4944",
"F  c #5C4944",
"G  c #5C4945",
"H  c #5C4A45",
"J  c #5D4A45",
"K  c #5C4946",
"L  c #5D4A46",
"P  c #5D4B46",
"I  c #5E4B46",
"U  c #5E4A47",
"Y  c #5F4B47",
"T  c #5D4A46",
"R  c #604C47",
"E  c #604C47",
"W  c #604C48",
"Q  c #614C48",
"!  c #614D48",
"~  c #614D49",
"^  c #624D49",
"/  c #624E49",
"(  c #634E49",
")  c #634F49",
"_  c #634E4A",
"`  c #644E4A",
"'  c #644F4A",
"]  c #654F4B",
"[  c #634E4A",
"{  c #65504A",
"}  c #66504B",
"|  c #66514B",
" . c #67514B",
".. c #66504C",
"X. c #67514C",
"o. c #67504C",
"O. c #68514C",
"+. c #6B544E",
"@. c #6C544E",
"#. c #6C544F",
"$. c #6D554F",
"%. c #6E554F",
"&. c #6E564F",
"*. c #6C544F",
"=. c #6D5550",
"-. c #6E5550",
";. c #6E5650",
":. c #6F5650",
">. c #6F5750",
",. c #6F5651",
"<. c #6F5751",
"1. c #6F5650",
"2. c #705751",
"3. c #715751",
"4. c #705751",
"5. c #715851",
"6. c #715852",
"7. c #725852",
"8. c #725952",
"9. c #735953",
"0. c #745A53",
"q. c #765B54",
"w. c #775C55",
"e. c #735953",
"r. c #785C55",
"t. c #785D56",
"y. c #795D56",
"u. c #795E56",
"i. c #7A5E57",
"p. c #7B5E57",
"a. c #7B5F57",
"s. c #7C5F58",
"d. c #7C6058",
"f. c #7D6058",
"g. c #7F615A",
/* pixels */
"u.u.u.u.u.u.u.u.u.u.u.u.u.s.f.w.| 6 # @ * B 7.u.f.u.u.u.u.u.u.f.u.7.B * @ # 6 | u.f.f.u.| 3 # o     X o o o o o ",
"q.q.q.q.q.q.q.q.q.q.q.q.q.u.u.0.W 6 # @ * k $.w.u.w.q.q.q.q.w.u.w.$.k * @ # 6 W 0.u.u.0.' 3 # O o o o o o o o o ",
"$.$.$.$.$.$.$.$.=.=.=.=.=.=.2.$.P - # + * i | =.2.=.=.=.=.=.=.2.=.| i * + # - P $.7.7.$.R 1 * + O O O O O o o o ",
"W W W W W W W W W W W W W W W P s * @ O # 6 A W W W W W W W W W W A 6 # O @ * s P ' ' W B 6 * # # # # # O O o o ",
"s s s s s s s s s s s s s h h i 6 * + O # = 3 s h s s s s s h k s 3 = # O + * ; i k k s 8 6 - = = = * * # O o o ",
"6 6 6 6 6 6 6 6 6 6 6 6 6 6 : 6 = # O O @ * ; 6 : 6 6 6 ; ; ; 6 6 ; * @ O O # = 6 6 6 ; ; ; ; ; 6 6 ; * # O o X ",
"; ; ; ; ; ; ; ; ; ; ; ; 6 6 6 ; * # O O @ * = 6 6 6 ; = * * * = ; = * @ O O # * ; = * * * = ; 6 3 3 6 = # O o X ",
"6 6 6 6 6 6 6 6 6 6 6 6 6 6 6 ; = # O O @ * ; 6 : 6 ; * # # # * = - * @ O O # = ; = $ # # * ; 6 3 3 6 = # O o X ",
"; ; ; ; ; ; ; ; ; ; ; ; ; 6 6 ; * # O O @ * = 6 6 6 - * # O @ # = = * @ O O # * = * # O @ # = ; 6 6 ; * # O o X ",
"* * * = = = = * * * * * * = = * * @ O O + # * = = = * # O o O # * * # + o O # * * # + o O @ * * = = * * # O o o ",
"# # # # # # # # # # # # # # # # # O o o O @ # # # # # O o o o O @ # @ O o o O # # @ O o o O @ # # # # @ O O o o ",
"O O O O O O O O O O O O O O O O O O o o o O O O O O O O o o o o O O O o o o O O O O o o o o O O O O O O O o o o ",
"@ + O O O o O O + @ @ + + O O o o O O O O O o o O O + + + + + + + + + + O O O o o O O O + + + + @ @ + O O o o o ",
"= * % @ O o O # * = = = * # + o O # * * # + o O @ * = = = = = * = = = = * * # O o + # * = = = = = = * * # O o o ",
"P B 8 * + O # - k P P P k - # O @ * 8 j ; # O + * 8 Z P P A A A Z Z P P Z 8 * @ O # - k P P A A A P B 8 * @ o X ",
"7.$.P ; # @ * i | 2.7.2.| i * + # ; P ' k * @ # - P +.2.=.$.$.$.$.$.=.2.$.P - # + * i | =.2.=.=.=.2.$.P ; # o   ",
"7.$.R 6 % # = k O.2.0.7.X.i * + # 6 P | B = # # ; Z | $.$.=.=.=.=.=.2.7.$.P ; # + * i X.2.7.2.=.7.7.$.P ; # o . ",
"' W V 6 * * = s P ' X.' P 6 # O @ = k P k ; * * = 6 i k P W W W W W ' ' W k = @ O $ 6 P ' ' ' ' ' ' W k = @ o X ",
"h s 8 6 - = ; 3 i s k h 3 = # O + * 6 i 3 6 = * * $ % * 6 i s h s s h k s 6 * + O # = 3 h k h s k k s 6 * @ o X ",
"6 6 6 6 6 ; 6 6 6 6 : 6 ; * @ O O # = 6 : 6 ; * # + O # * ; 6 6 6 6 6 : 6 = # O O @ * ; 6 6 ; ; 6 6 6 = # O o X ",
"; 6 6 6 6 6 6 6 6 6 6 6 = * @ O O # * ; : 3 6 = # O o @ * - 6 6 6 ; 6 6 ; * # O O @ * = ; = * * * = ; = # O o o ",
"6 6 6 6 6 6 6 6 6 6 6 6 ; * @ O O # = 6 : 3 6 = # O O @ * ; 6 6 6 6 6 6 ; * # O O @ * = = * # # $ = ; = # O o o ",
"; ; ; ; ; ; ; ; ; ; 6 6 = * @ O O # * ; 6 6 ; * # O O @ * = 6 6 6 ; 6 6 ; * # O O @ * = = # @ O # * = = # O o o ",
"* * * * * * * = = = = = * # + o O @ * * = = * * @ O O + # * * = = * = = * * @ O O + # * * # O o + # * * # O o o ",
"# # # # # # # # # # # # # + O o o O @ # # # # @ O O o O @ # # # # # # # # # O o o O + @ @ O o o O + @ @ O O o o ",
"O O O O O O O O O O O O O O o o o o O O O O O O O o o o O O O O O O O O O O O o o o O O O o o o o O O O O o o o ",
"+ @ @ @ + + O O o o O O + + + + + + + + + + + O O o o O O O + + + + O O o o O O + + + + + + + + + + + O O o o o ",
"= = = = = * # + o O @ % * = = = = = = * = = * * @ O O + # * = = = * # + o O # * = = = * = = = = = = * * # O o o ",
"A A A P A k - # O @ * 8 Z P P A A A A A P P Z 8 * @ O # - k P P P k - # O @ * 8 Z P P A A A A A P P Z 8 * @ o X ",
"$.$.=.2.=.| i * + # - P $.7.2.=.$.$.$.$.2.2.$.P - # + * i | 2.7.2.| i * + # - P $.2.=.$.$.$.=.=.2.2.$.P - # o   ",
"=.=.=.7.2.X.i * + # ; P =.7.7.=.=.=.=.=.2.7.$.P - # + * i X.7.0.7.| i * + # - P $.7.2.=.=.=.=.=.7.7.$.P ; # o   ",
"W W W ' ' P 6 # O @ = k W | ' W W W W W ' ' W k = @ O $ 6 P ' X.' P 6 # O @ * k W ' ' W W W W W ' ' W k = @ o . ",
"s s s k h 3 = # O + * 6 s k h s s s s s h h s 6 * + O # = 3 h k h 3 = # O + * 6 s k h s s s s s h k s 6 * @ o X ",
"6 6 6 : 6 ; * # O @ # * ; 6 6 6 6 6 6 6 6 : 6 = # O O @ * ; : 3 6 ; * # O @ # = 6 : 6 6 6 6 6 6 6 : 6 = # O o o ",
"6 6 6 6 6 ; * * # # # # * * = ; 6 6 6 6 6 6 ; * # O O @ * = 6 6 6 ; * & # # * = ; 6 6 ; ; ; ; ; 6 6 ; * # O o o ",
"6 6 6 6 6 ; ; = * * # # # # * ; 6 6 6 6 6 6 ; = # O O @ * ; 6 6 6 ; - = * * = ; 6 6 6 6 6 6 6 6 6 6 ; = # O o o ",
"; ; ; ; ; ; ; ; = * # + O # * - 6 6 6 ; 6 6 ; * # O O @ * = ; 6 ; ; ; ; ; ; ; ; ; ; ; ; ; ; ; ; 6 6 ; * # O o o ",
"* * * * * = = = * * @ O o O # * = = = = = = * * @ O O O # * * = * * = = = = = * * * * * * = = = = = * * @ O o o ",
"# # # # # # # # # # O o o o + # # # # # # # # @ O o o O + # # # # # # # # # # # # # # # # # # # # # # @ O O o o ",
"O O O O O O O O O O O o o o O O O O O O O O O O o o o o O O O O O O O O O O O O O O O O O O O O O O O O O o o o ",
"+ + + + + + O O o o O O + + + + O O o o O O + + + + + + + @ @ @ + + O O o o O O + @ @ + O O o o O O + O O o o o ",
"* = = = = * # + o O @ * = = = * % @ O o + # * = = = = = = = = = = * # + o O @ % * = = * % @ O o + # * * # O o o ",
"A A A P P k - # O @ * 8 Z P P Z 8 * @ O # - k A P P A A A A A P A k - # O @ * 8 Z P P Z 8 * + O # ; i 8 * @ o X ",
"$.$.=.=.$.| i * + # - P $.7.7.$.P - # + * i | =.2.=.$.$.$.$.=.2.=.| i * + # - P $.7.7.$.P - # @ * k ' P 6 # o   ",
"=.=.=.$.O.Y 1 $ + # ; P $.7.7.$.P - # + * i X.2.7.2.=.=.=.=.2.7.2.| i * + # ; P $.7.7.=.R 6 $ # = B | Y 6 # o . ",
"' W P A i 6 * @ O @ = k W X.X.W k * @ O # 6 P ' ' W W W W ' ' ' ' P 6 $ O @ = k W X.X.W V 6 * * - h P k = # o X ",
"k s 3 - * # + O O @ * 6 s k k i 6 * + O # = 8 h k s s s s s h k h 3 = # O + * 6 s k k s 8 6 - = ; 3 i 6 * @ o X ",
": 6 = * @ O o o o O # = 6 : : 6 = # @ O # * ; 6 : 6 6 6 ; ; ; 6 6 ; * @ O O # = 6 6 6 ; ; ; ; ; 6 6 6 = # O o o ",
"6 ; = * # @ O o o O # * ; 6 6 ; = * # # & * ; 6 6 6 ; = * * * = ; = * @ O O # * ; = * * * = ; 6 : 6 ; * # O o o ",
"6 6 ; = * * # O O O # * ; 6 6 6 ; = * * = - ; 6 6 6 ; * # # # * = - * @ O O # = ; * $ # # * ; 6 : : ; = # O o o ",
"; ; ; ; ; = $ @ O O # * ; 6 6 ; ; ; ; ; ; ; ; ; 6 6 = * # O @ # = = * @ O O # = = * # O @ # = ; 6 6 ; * # O o o ",
"= = = = = * # @ O O @ * * = = = = = = = = = = = = = * # + O O # * * # @ O O # * * # + o O # * * = = * * # O o o ",
"# # # # # # @ O o O O # # # # # # # # # # # # # # # # @ O o O + # # @ O o O + # # @ O o o O # # # # # # + O o o ",
"O O O O O O O O o o O O O O O O O O O O O O O O O O O O o o o O O O O o o o O O O O o o o O O O O O O O O o o o ",
"o o o o o o o o o o o o o o o o o o o o o o o o o o o o o o o o o o o o o o o o o o o o o o o o o o o o o o o o ",
"X o o o o o o o o o o o o X o o o o o o o o o o X X o o o o o o o o o o o o o o o o o o o o o X X X X o o o o o "
};
